<svg width="226" height="20" viewBox="0 0 226 20" fill="none" xmlns="http://www.w3.org/2000/svg">
<path d="M224.057 0V13.82C224.057 14.38 224.164 14.76 224.377 14.96C224.604 15.16 224.977 15.26 225.497 15.26V15.68C225.27 15.6667 224.917 15.6533 224.437 15.64C223.957 15.6133 223.477 15.6 222.997 15.6C222.517 15.6 222.03 15.6133 221.537 15.64C221.057 15.6533 220.697 15.6667 220.457 15.68V15.26C220.977 15.26 221.344 15.16 221.557 14.96C221.784 14.76 221.897 14.38 221.897 13.82V2.4C221.897 1.8 221.797 1.36 221.597 1.08C221.397 0.786667 221.017 0.64 220.457 0.64V0.22C220.884 0.26 221.297 0.28 221.697 0.28C222.137 0.28 222.557 0.26 222.957 0.22C223.357 0.166667 223.724 0.0933337 224.057 0Z" fill="black" fill-opacity="0.5"/>
<path d="M218.18 5.14014V13.5201C218.18 14.1201 218.28 14.5668 218.48 14.8601C218.693 15.1401 219.073 15.2801 219.62 15.2801V15.7001C219.206 15.6601 218.793 15.6401 218.38 15.6401C217.94 15.6401 217.52 15.6601 217.12 15.7001C216.72 15.7401 216.353 15.8135 216.02 15.9201V13.7401C215.686 14.5401 215.22 15.1135 214.62 15.4601C214.033 15.7935 213.413 15.9601 212.76 15.9601C212.266 15.9601 211.846 15.8868 211.5 15.7401C211.153 15.6068 210.866 15.4268 210.64 15.2001C210.4 14.9335 210.233 14.5935 210.14 14.1801C210.046 13.7535 210 13.2201 210 12.5801V7.54014C210 6.94014 209.9 6.50014 209.7 6.22014C209.5 5.9268 209.12 5.78014 208.56 5.78014V5.36014C208.986 5.40014 209.4 5.42014 209.8 5.42014C210.24 5.42014 210.66 5.40014 211.06 5.36014C211.46 5.3068 211.826 5.23347 212.16 5.14014V13.1401C212.16 13.5268 212.186 13.8801 212.24 14.2001C212.293 14.5201 212.42 14.7735 212.62 14.9601C212.82 15.1468 213.14 15.2401 213.58 15.2401C214.046 15.2401 214.46 15.1001 214.82 14.8201C215.193 14.5401 215.486 14.1601 215.7 13.6801C215.913 13.2001 216.02 12.6601 216.02 12.0601V7.54014C216.02 6.94014 215.92 6.50014 215.72 6.22014C215.52 5.9268 215.14 5.78014 214.58 5.78014V5.36014C215.006 5.40014 215.42 5.42014 215.82 5.42014C216.26 5.42014 216.68 5.40014 217.08 5.36014C217.48 5.3068 217.846 5.23347 218.18 5.14014Z" fill="black" fill-opacity="0.5"/>
<path d="M203.662 5.08008C204.836 5.08008 205.756 5.43341 206.422 6.14008C207.089 6.84674 207.422 7.96674 207.422 9.50008H200.522L200.482 9.12008H205.302C205.316 8.46675 205.262 7.86674 205.142 7.32008C205.022 6.76008 204.836 6.31341 204.582 5.98008C204.329 5.64674 203.996 5.48008 203.582 5.48008C203.009 5.48008 202.509 5.78674 202.082 6.40008C201.669 7.00008 201.416 7.96674 201.322 9.30008L201.382 9.40008C201.369 9.58674 201.356 9.79341 201.342 10.0201C201.329 10.2334 201.322 10.4467 201.322 10.6601C201.322 11.5801 201.462 12.3534 201.742 12.9801C202.022 13.6067 202.389 14.0801 202.842 14.4001C203.296 14.7067 203.756 14.8601 204.222 14.8601C204.582 14.8601 204.929 14.8067 205.262 14.7001C205.609 14.5801 205.936 14.3867 206.242 14.1201C206.549 13.8401 206.822 13.4601 207.062 12.9801L207.462 13.1401C207.302 13.5934 207.056 14.0401 206.722 14.4801C206.389 14.9201 205.962 15.2801 205.442 15.5601C204.922 15.8267 204.316 15.9601 203.622 15.9601C202.689 15.9601 201.876 15.7534 201.182 15.3401C200.489 14.9134 199.956 14.3067 199.582 13.5201C199.209 12.7334 199.022 11.8001 199.022 10.7201C199.022 9.53341 199.216 8.52008 199.602 7.68008C199.989 6.84008 200.529 6.20008 201.222 5.76008C201.929 5.30674 202.742 5.08008 203.662 5.08008Z" fill="black" fill-opacity="0.5"/>
<path d="M193.379 5.08008C193.912 5.08008 194.372 5.16674 194.759 5.34008C195.159 5.50008 195.445 5.64675 195.619 5.78008C196.059 6.12674 196.332 5.90008 196.439 5.10008H196.879C196.852 5.47341 196.832 5.92674 196.819 6.46008C196.805 6.98008 196.799 7.67341 196.799 8.54008H196.359C196.279 8.04674 196.139 7.56675 195.939 7.10008C195.752 6.63341 195.472 6.24674 195.099 5.94008C194.739 5.63341 194.265 5.48008 193.679 5.48008C193.239 5.48008 192.872 5.60674 192.579 5.86008C192.285 6.10008 192.139 6.46008 192.139 6.94008C192.139 7.34008 192.259 7.68674 192.499 7.98008C192.739 8.27341 193.045 8.54674 193.419 8.80008C193.805 9.05341 194.219 9.32675 194.659 9.62008C195.152 9.95341 195.592 10.2867 195.979 10.6201C196.379 10.9401 196.692 11.3001 196.919 11.7001C197.159 12.1001 197.279 12.5667 197.279 13.1001C197.279 13.7134 197.112 14.2334 196.779 14.6601C196.459 15.0867 196.032 15.4134 195.499 15.6401C194.965 15.8534 194.379 15.9601 193.739 15.9601C193.419 15.9601 193.119 15.9267 192.839 15.8601C192.559 15.8067 192.299 15.7334 192.059 15.6401C191.912 15.5601 191.765 15.4801 191.619 15.4001C191.485 15.3067 191.352 15.2201 191.219 15.1401C191.085 15.0467 190.965 15.0601 190.859 15.1801C190.752 15.3001 190.672 15.5134 190.619 15.8201H190.179C190.205 15.3934 190.225 14.8734 190.239 14.2601C190.252 13.6467 190.259 12.8334 190.259 11.8201H190.699C190.792 12.5534 190.932 13.2001 191.119 13.7601C191.305 14.3201 191.579 14.7601 191.939 15.0801C192.312 15.3867 192.819 15.5401 193.459 15.5401C193.712 15.5401 193.965 15.4867 194.219 15.3801C194.472 15.2601 194.679 15.0734 194.839 14.8201C195.012 14.5667 195.099 14.2267 195.099 13.8001C195.099 13.2134 194.892 12.7334 194.479 12.3601C194.079 11.9734 193.559 11.5667 192.919 11.1401C192.465 10.8201 192.032 10.5067 191.619 10.2001C191.219 9.88008 190.892 9.52674 190.639 9.14008C190.385 8.74008 190.259 8.26674 190.259 7.72008C190.259 7.12008 190.399 6.62674 190.679 6.24008C190.972 5.85341 191.359 5.56674 191.839 5.38008C192.319 5.18008 192.832 5.08008 193.379 5.08008Z" fill="black" fill-opacity="0.5"/>
<path d="M188.447 5.26025L182.927 15.3803H184.727C185.26 15.3803 185.733 15.2736 186.147 15.0603C186.56 14.8469 186.9 14.4936 187.167 14.0003C187.433 13.5069 187.593 12.8536 187.647 12.0403H188.107C188.107 12.9336 188.113 13.6803 188.127 14.2803C188.14 14.8803 188.16 15.3736 188.187 15.7603C187.587 15.7336 186.967 15.7136 186.327 15.7003C185.687 15.6869 185.053 15.6803 184.427 15.6803C183.747 15.6803 183.053 15.6869 182.347 15.7003C181.653 15.7269 180.987 15.7536 180.347 15.7803L185.867 5.66025H184.027C183.453 5.66025 182.96 5.77359 182.547 6.00025C182.133 6.21359 181.807 6.56692 181.567 7.06025C181.34 7.54025 181.193 8.18692 181.127 9.00025H180.687C180.687 8.09359 180.68 7.34692 180.667 6.76025C180.653 6.17359 180.633 5.68025 180.607 5.28025C181.193 5.30692 181.807 5.32692 182.447 5.34025C183.087 5.35359 183.727 5.36025 184.367 5.36025C185.033 5.36025 185.713 5.35359 186.407 5.34025C187.113 5.31359 187.793 5.28692 188.447 5.26025Z" fill="black" fill-opacity="0.5"/>
<path d="M175.116 5.36035V5.76035C174.862 5.80035 174.629 5.93368 174.416 6.16035C174.202 6.37369 173.996 6.74702 173.796 7.28035L170.676 15.6404L170.196 16.1204L166.296 6.90035C166.042 6.38035 165.796 6.06702 165.556 5.96035C165.329 5.84035 165.136 5.78035 164.976 5.78035V5.36035C165.309 5.40035 165.662 5.43368 166.036 5.46035C166.409 5.47368 166.796 5.48035 167.196 5.48035C167.649 5.48035 168.102 5.46702 168.556 5.44035C169.022 5.41369 169.456 5.38702 169.856 5.36035V5.78035C169.536 5.78035 169.249 5.80702 168.996 5.86035C168.756 5.90035 168.596 6.02702 168.516 6.24035C168.449 6.44035 168.516 6.78702 168.716 7.28035L171.196 13.3804L171.056 13.4404L173.076 8.08035C173.276 7.54702 173.356 7.12035 173.316 6.80035C173.276 6.46702 173.136 6.22035 172.896 6.06035C172.656 5.88702 172.302 5.78702 171.836 5.76035V5.36035C172.062 5.37368 172.269 5.38702 172.456 5.40035C172.656 5.40035 172.849 5.40702 173.036 5.42035C173.222 5.42035 173.409 5.42035 173.596 5.42035C173.889 5.42035 174.162 5.41369 174.416 5.40035C174.682 5.38702 174.916 5.37368 175.116 5.36035ZM170.676 15.6404L169.956 17.5204C169.822 17.8537 169.682 18.1337 169.536 18.3604C169.402 18.587 169.256 18.7737 169.096 18.9204C168.896 19.107 168.649 19.2404 168.356 19.3204C168.062 19.4004 167.769 19.4404 167.476 19.4404C167.196 19.4404 166.929 19.387 166.676 19.2804C166.436 19.187 166.236 19.0404 166.076 18.8404C165.916 18.6404 165.836 18.3937 165.836 18.1004C165.836 17.7537 165.949 17.4737 166.176 17.2604C166.402 17.047 166.702 16.9404 167.076 16.9404C167.409 16.9404 167.689 17.027 167.916 17.2004C168.142 17.387 168.256 17.6537 168.256 18.0004C168.256 18.2404 168.189 18.447 168.056 18.6204C167.936 18.7937 167.776 18.927 167.576 19.0204C167.616 19.0337 167.656 19.0404 167.696 19.0404C167.736 19.0404 167.769 19.0404 167.796 19.0404C168.169 19.0404 168.502 18.9137 168.796 18.6604C169.089 18.4204 169.336 18.027 169.536 17.4804L170.256 15.5604L170.676 15.6404Z" fill="black" fill-opacity="0.5"/>
<path d="M160.684 5.08002C161.751 5.08002 162.638 5.52669 163.344 6.42002C164.064 7.30002 164.424 8.64002 164.424 10.44C164.424 11.7067 164.218 12.7467 163.804 13.56C163.391 14.3734 162.838 14.98 162.144 15.38C161.464 15.7667 160.724 15.96 159.924 15.96C159.298 15.96 158.698 15.8067 158.124 15.5C157.551 15.18 157.111 14.7 156.804 14.06L157.164 14.16C157.458 14.6134 157.824 14.9534 158.264 15.18C158.704 15.4067 159.151 15.52 159.604 15.52C160.444 15.52 161.071 15.1134 161.484 14.3C161.911 13.4867 162.124 12.2334 162.124 10.54C162.124 9.43335 162.038 8.52669 161.864 7.82002C161.704 7.11335 161.458 6.60002 161.124 6.28002C160.804 5.94669 160.398 5.78002 159.904 5.78002C159.331 5.78002 158.804 6.02669 158.324 6.52002C157.844 7.01335 157.558 7.72669 157.464 8.66002L157.264 8.24002C157.451 7.24002 157.851 6.46669 158.464 5.92002C159.091 5.36002 159.831 5.08002 160.684 5.08002ZM157.584 0.0200195V14.86C157.358 14.94 157.124 15.04 156.884 15.16C156.644 15.28 156.418 15.4134 156.204 15.56C155.991 15.6934 155.791 15.84 155.604 16L155.284 15.84C155.338 15.6534 155.371 15.4667 155.384 15.28C155.411 15.0934 155.424 14.9 155.424 14.7V2.42002C155.424 1.82002 155.318 1.38002 155.104 1.10002C154.904 0.806686 154.531 0.660019 153.984 0.660019V0.24002C154.411 0.280019 154.824 0.300019 155.224 0.300019C155.664 0.300019 156.084 0.280019 156.484 0.24002C156.884 0.186686 157.251 0.113353 157.584 0.0200195Z" fill="black" fill-opacity="0.5"/>
<path d="M144.405 5.08008C145.578 5.08008 146.498 5.43341 147.165 6.14008C147.831 6.84674 148.165 7.96674 148.165 9.50008H141.265L141.225 9.12008H146.045C146.058 8.46675 146.005 7.86674 145.885 7.32008C145.765 6.76008 145.578 6.31341 145.325 5.98008C145.071 5.64674 144.738 5.48008 144.325 5.48008C143.751 5.48008 143.251 5.78674 142.825 6.40008C142.411 7.00008 142.158 7.96674 142.065 9.30008L142.125 9.40008C142.111 9.58674 142.098 9.79341 142.085 10.0201C142.071 10.2334 142.065 10.4467 142.065 10.6601C142.065 11.5801 142.205 12.3534 142.485 12.9801C142.765 13.6067 143.131 14.0801 143.585 14.4001C144.038 14.7067 144.498 14.8601 144.965 14.8601C145.325 14.8601 145.671 14.8067 146.005 14.7001C146.351 14.5801 146.678 14.3867 146.985 14.1201C147.291 13.8401 147.565 13.4601 147.805 12.9801L148.205 13.1401C148.045 13.5934 147.798 14.0401 147.465 14.4801C147.131 14.9201 146.705 15.2801 146.185 15.5601C145.665 15.8267 145.058 15.9601 144.365 15.9601C143.431 15.9601 142.618 15.7534 141.925 15.3401C141.231 14.9134 140.698 14.3067 140.325 13.5201C139.951 12.7334 139.765 11.8001 139.765 10.7201C139.765 9.53341 139.958 8.52008 140.345 7.68008C140.731 6.84008 141.271 6.20008 141.965 5.76008C142.671 5.30674 143.485 5.08008 144.405 5.08008Z" fill="black" fill-opacity="0.5"/>
<path d="M131.186 5.14008V17.4001C131.186 17.9867 131.353 18.3801 131.686 18.5801C132.019 18.7801 132.479 18.8801 133.066 18.8801V19.3001C132.759 19.2867 132.333 19.2667 131.786 19.2401C131.239 19.2267 130.653 19.2201 130.026 19.2201C129.586 19.2201 129.153 19.2267 128.726 19.2401C128.299 19.2667 127.973 19.2867 127.746 19.3001V18.8801C128.213 18.8801 128.539 18.7867 128.726 18.6001C128.926 18.4267 129.026 18.0934 129.026 17.6001V7.54008C129.026 6.94008 128.926 6.50008 128.726 6.22008C128.526 5.92674 128.146 5.78008 127.586 5.78008V5.36008C128.013 5.40008 128.426 5.42008 128.826 5.42008C129.266 5.42008 129.686 5.40008 130.086 5.36008C130.486 5.30674 130.853 5.23341 131.186 5.14008ZM134.366 5.08008C135.059 5.08008 135.679 5.27341 136.226 5.66008C136.786 6.03341 137.226 6.58674 137.546 7.32008C137.866 8.05341 138.026 8.96674 138.026 10.0601C138.026 10.8601 137.933 11.6201 137.746 12.3401C137.559 13.0467 137.273 13.6734 136.886 14.2201C136.513 14.7534 136.039 15.1801 135.466 15.5001C134.893 15.8067 134.213 15.9601 133.426 15.9601C132.839 15.9601 132.319 15.8334 131.866 15.5801C131.426 15.3267 131.113 15.0067 130.926 14.6201L131.126 14.3401C131.299 14.6734 131.539 14.9467 131.846 15.1601C132.166 15.3734 132.559 15.4801 133.026 15.4801C133.719 15.4801 134.259 15.2601 134.646 14.8201C135.046 14.3667 135.326 13.7601 135.486 13.0001C135.646 12.2267 135.726 11.3534 135.726 10.3801C135.726 9.28674 135.646 8.40674 135.486 7.74008C135.326 7.06008 135.086 6.56675 134.766 6.26008C134.446 5.94008 134.059 5.78008 133.606 5.78008C133.006 5.78008 132.459 6.02008 131.966 6.50008C131.486 6.98008 131.193 7.70008 131.086 8.66008L130.886 8.24008C131.059 7.24008 131.459 6.46675 132.086 5.92008C132.726 5.36008 133.486 5.08008 134.366 5.08008Z" fill="black" fill-opacity="0.5"/>
<path d="M121.632 5.08008C122.525 5.08008 123.318 5.26674 124.012 5.64008C124.705 6.01341 125.258 6.60008 125.672 7.40008C126.085 8.20008 126.292 9.24675 126.292 10.5401C126.292 11.8334 126.085 12.8801 125.672 13.6801C125.258 14.4667 124.705 15.0467 124.012 15.4201C123.318 15.7801 122.525 15.9601 121.632 15.9601C120.752 15.9601 119.958 15.7801 119.252 15.4201C118.545 15.0467 117.985 14.4667 117.572 13.6801C117.172 12.8801 116.972 11.8334 116.972 10.5401C116.972 9.24675 117.172 8.20008 117.572 7.40008C117.985 6.60008 118.545 6.01341 119.252 5.64008C119.958 5.26674 120.752 5.08008 121.632 5.08008ZM121.632 5.48008C120.938 5.48008 120.372 5.88008 119.932 6.68008C119.492 7.46674 119.272 8.75341 119.272 10.5401C119.272 12.3267 119.492 13.6134 119.932 14.4001C120.372 15.1734 120.938 15.5601 121.632 15.5601C122.312 15.5601 122.872 15.1734 123.312 14.4001C123.765 13.6134 123.992 12.3267 123.992 10.5401C123.992 8.75341 123.765 7.46674 123.312 6.68008C122.872 5.88008 122.312 5.48008 121.632 5.48008Z" fill="black" fill-opacity="0.5"/>
<path d="M114.428 0V13.82C114.428 14.38 114.535 14.76 114.748 14.96C114.975 15.16 115.348 15.26 115.868 15.26V15.68C115.641 15.6667 115.288 15.6533 114.808 15.64C114.328 15.6133 113.848 15.6 113.368 15.6C112.888 15.6 112.401 15.6133 111.908 15.64C111.428 15.6533 111.068 15.6667 110.828 15.68V15.26C111.348 15.26 111.715 15.16 111.928 14.96C112.155 14.76 112.268 14.38 112.268 13.82V2.4C112.268 1.8 112.168 1.36 111.968 1.08C111.768 0.786667 111.388 0.64 110.828 0.64V0.22C111.255 0.26 111.668 0.28 112.068 0.28C112.508 0.28 112.928 0.26 113.328 0.22C113.728 0.166667 114.095 0.0933337 114.428 0Z" fill="black" fill-opacity="0.5"/>
<path d="M105.811 5.08008C106.984 5.08008 107.904 5.43341 108.571 6.14008C109.238 6.84674 109.571 7.96674 109.571 9.50008H102.671L102.631 9.12008H107.451C107.464 8.46675 107.411 7.86674 107.291 7.32008C107.171 6.76008 106.984 6.31341 106.731 5.98008C106.478 5.64674 106.144 5.48008 105.731 5.48008C105.158 5.48008 104.658 5.78674 104.231 6.40008C103.818 7.00008 103.564 7.96674 103.471 9.30008L103.531 9.40008C103.518 9.58674 103.504 9.79341 103.491 10.0201C103.478 10.2334 103.471 10.4467 103.471 10.6601C103.471 11.5801 103.611 12.3534 103.891 12.9801C104.171 13.6067 104.538 14.0801 104.991 14.4001C105.444 14.7067 105.904 14.8601 106.371 14.8601C106.731 14.8601 107.078 14.8067 107.411 14.7001C107.758 14.5801 108.084 14.3867 108.391 14.1201C108.698 13.8401 108.971 13.4601 109.211 12.9801L109.611 13.1401C109.451 13.5934 109.204 14.0401 108.871 14.4801C108.538 14.9201 108.111 15.2801 107.591 15.5601C107.071 15.8267 106.464 15.9601 105.771 15.9601C104.838 15.9601 104.024 15.7534 103.331 15.3401C102.638 14.9134 102.104 14.3067 101.731 13.5201C101.358 12.7334 101.171 11.8001 101.171 10.7201C101.171 9.53341 101.364 8.52008 101.751 7.68008C102.138 6.84008 102.678 6.20008 103.371 5.76008C104.078 5.30674 104.891 5.08008 105.811 5.08008Z" fill="black" fill-opacity="0.5"/>
<path d="M100.483 5.36035V5.76035C100.23 5.80035 99.9896 5.93368 99.763 6.16035C99.5496 6.37369 99.3496 6.74702 99.163 7.28035L96.003 15.7604C95.8963 15.7604 95.783 15.7604 95.663 15.7604C95.5563 15.7604 95.4496 15.7604 95.343 15.7604L91.703 6.90035C91.4896 6.38035 91.2763 6.06702 91.063 5.96035C90.863 5.84035 90.6896 5.78035 90.543 5.78035V5.36035C90.863 5.38702 91.1896 5.41369 91.523 5.44035C91.8696 5.45368 92.2496 5.46035 92.663 5.46035C93.0763 5.46035 93.5096 5.45368 93.963 5.44035C94.4296 5.41369 94.863 5.38702 95.263 5.36035V5.78035C94.943 5.78035 94.6563 5.80035 94.403 5.84035C94.163 5.88035 94.003 6.00035 93.923 6.20035C93.8563 6.38702 93.903 6.71369 94.063 7.18035L96.523 13.3804L96.363 13.5404L98.423 8.08035C98.623 7.54702 98.703 7.12035 98.663 6.80035C98.623 6.46702 98.483 6.22035 98.243 6.06035C98.003 5.88702 97.6563 5.78702 97.203 5.76035V5.36035C97.4296 5.37368 97.6363 5.38702 97.823 5.40035C98.023 5.40035 98.2096 5.40702 98.383 5.42035C98.5696 5.42035 98.763 5.42035 98.963 5.42035C99.2563 5.42035 99.5296 5.41369 99.783 5.40035C100.05 5.38702 100.283 5.37368 100.483 5.36035Z" fill="black" fill-opacity="0.5"/>
<path d="M86.1429 5.08008C87.3163 5.08008 88.2363 5.43341 88.9029 6.14008C89.5696 6.84674 89.9029 7.96674 89.9029 9.50008H83.0029L82.9629 9.12008H87.7829C87.7963 8.46675 87.7429 7.86674 87.6229 7.32008C87.5029 6.76008 87.3163 6.31341 87.0629 5.98008C86.8096 5.64674 86.4763 5.48008 86.0629 5.48008C85.4896 5.48008 84.9896 5.78674 84.5629 6.40008C84.1496 7.00008 83.8963 7.96674 83.8029 9.30008L83.8629 9.40008C83.8496 9.58674 83.8363 9.79341 83.8229 10.0201C83.8096 10.2334 83.8029 10.4467 83.8029 10.6601C83.8029 11.5801 83.9429 12.3534 84.2229 12.9801C84.5029 13.6067 84.8696 14.0801 85.3229 14.4001C85.7763 14.7067 86.2363 14.8601 86.7029 14.8601C87.0629 14.8601 87.4096 14.8067 87.7429 14.7001C88.0896 14.5801 88.4163 14.3867 88.7229 14.1201C89.0296 13.8401 89.3029 13.4601 89.5429 12.9801L89.9429 13.1401C89.7829 13.5934 89.5363 14.0401 89.2029 14.4801C88.8696 14.9201 88.4429 15.2801 87.9229 15.5601C87.4029 15.8267 86.7963 15.9601 86.1029 15.9601C85.1696 15.9601 84.3563 15.7534 83.6629 15.3401C82.9696 14.9134 82.4363 14.3067 82.0629 13.5201C81.6896 12.7334 81.5029 11.8001 81.5029 10.7201C81.5029 9.53341 81.6963 8.52008 82.0829 7.68008C82.4696 6.84008 83.0096 6.20008 83.7029 5.76008C84.4096 5.30674 85.2229 5.08008 86.1429 5.08008Z" fill="black" fill-opacity="0.5"/>
<path d="M78.8047 0V13.5C78.8047 14.1 78.9047 14.5467 79.1047 14.84C79.318 15.12 79.698 15.26 80.2447 15.26V15.68C79.8314 15.64 79.418 15.62 79.0047 15.62C78.5514 15.62 78.1247 15.64 77.7247 15.68C77.338 15.72 76.978 15.7933 76.6447 15.9V2.4C76.6447 1.8 76.538 1.36 76.3247 1.08C76.1247 0.786667 75.7514 0.64 75.2047 0.64V0.22C75.6314 0.26 76.0447 0.28 76.4447 0.28C76.8847 0.28 77.3047 0.26 77.7047 0.22C78.1047 0.166667 78.4714 0.0933337 78.8047 0ZM74.3047 5.08C74.8914 5.08 75.4247 5.20667 75.9047 5.46C76.398 5.71333 76.7447 6.14 76.9447 6.74L76.7047 6.96C76.518 6.48 76.2447 6.13333 75.8847 5.92C75.5247 5.69333 75.118 5.58 74.6647 5.58C73.9047 5.58 73.2847 5.98667 72.8047 6.8C72.3247 7.6 72.0913 8.84 72.1047 10.52C72.1047 11.6267 72.198 12.5333 72.3847 13.24C72.5714 13.9333 72.8447 14.4467 73.2047 14.78C73.578 15.1133 74.0247 15.28 74.5447 15.28C75.0647 15.28 75.5314 15.06 75.9447 14.62C76.3714 14.18 76.6247 13.5467 76.7047 12.72L76.8847 13.14C76.7514 14.0467 76.4313 14.7467 75.9247 15.24C75.418 15.72 74.738 15.96 73.8847 15.96C73.0714 15.96 72.3514 15.7667 71.7247 15.38C71.1114 14.98 70.638 14.38 70.3047 13.58C69.9714 12.7667 69.8047 11.7467 69.8047 10.52C69.8047 9.30667 70.0047 8.3 70.4047 7.5C70.818 6.68667 71.3647 6.08 72.0447 5.68C72.7247 5.28 73.478 5.08 74.3047 5.08Z" fill="black" fill-opacity="0.5"/>
<path d="M61.3082 13.2202C61.6149 13.2202 61.8682 13.2802 62.0682 13.4002C62.2682 13.5202 62.4349 13.6802 62.5682 13.8802C62.7149 14.0935 62.8082 14.3335 62.8482 14.6002C62.9015 14.8669 62.9282 15.1069 62.9282 15.3202C62.9282 15.9735 62.7615 16.5735 62.4282 17.1202C62.0949 17.6669 61.5749 18.1069 60.8682 18.4402L60.6882 18.0802C61.0882 17.9069 61.4349 17.6402 61.7282 17.2802C62.0215 16.9202 62.1815 16.5535 62.2082 16.1802C62.2215 15.9802 62.2082 15.7935 62.1682 15.6202C61.9282 15.8469 61.6349 15.9602 61.2882 15.9602C60.9015 15.9602 60.5749 15.8402 60.3082 15.6002C60.0415 15.3602 59.9082 15.0269 59.9082 14.6002C59.9082 14.1869 60.0415 13.8535 60.3082 13.6002C60.5882 13.3469 60.9215 13.2202 61.3082 13.2202Z" fill="black" fill-opacity="0.5"/>
<path d="M54.1973 5.08008C54.7306 5.08008 55.164 5.15341 55.4973 5.30008C55.844 5.43341 56.1306 5.62008 56.3573 5.86008C56.5973 6.11341 56.764 6.44008 56.8573 6.84008C56.964 7.24008 57.0173 7.78008 57.0173 8.46008V13.8201C57.0173 14.3801 57.124 14.7601 57.3373 14.9601C57.564 15.1601 57.9373 15.2601 58.4573 15.2601V15.6801C58.2306 15.6667 57.8773 15.6534 57.3973 15.6401C56.9173 15.6134 56.444 15.6001 55.9773 15.6001C55.524 15.6001 55.0706 15.6134 54.6173 15.6401C54.1773 15.6534 53.844 15.6667 53.6173 15.6801V15.2601C54.0706 15.2601 54.3906 15.1601 54.5773 14.9601C54.764 14.7601 54.8573 14.3801 54.8573 13.8201V7.90008C54.8573 7.51341 54.824 7.16674 54.7573 6.86008C54.6906 6.54008 54.5506 6.28674 54.3373 6.10008C54.124 5.90008 53.804 5.80008 53.3773 5.80008C52.884 5.80008 52.444 5.94008 52.0573 6.22008C51.684 6.50008 51.384 6.88674 51.1573 7.38008C50.944 7.86008 50.8373 8.40008 50.8373 9.00008V13.8201C50.8373 14.3801 50.9306 14.7601 51.1173 14.9601C51.3173 15.1601 51.6373 15.2601 52.0773 15.2601V15.6801C51.864 15.6667 51.5373 15.6534 51.0973 15.6401C50.6706 15.6134 50.224 15.6001 49.7573 15.6001C49.304 15.6001 48.8306 15.6134 48.3373 15.6401C47.844 15.6534 47.4773 15.6667 47.2373 15.6801V15.2601C47.7573 15.2601 48.124 15.1601 48.3373 14.9601C48.564 14.7601 48.6773 14.3801 48.6773 13.8201V7.54008C48.6773 6.94008 48.5773 6.50008 48.3773 6.22008C48.1773 5.92674 47.7973 5.78008 47.2373 5.78008V5.36008C47.664 5.40008 48.0773 5.42008 48.4773 5.42008C48.9306 5.42008 49.3506 5.40008 49.7373 5.36008C50.1373 5.30674 50.504 5.23341 50.8373 5.14008V7.32008C51.184 6.49341 51.6573 5.91341 52.2573 5.58008C52.8706 5.24674 53.5173 5.08008 54.1973 5.08008Z" fill="black" fill-opacity="0.5"/>
<path d="M40.2743 19.4404C39.5276 19.4404 38.8343 19.367 38.1943 19.2204C37.5676 19.0737 37.0609 18.847 36.6743 18.5404C36.3009 18.247 36.1143 17.867 36.1143 17.4004C36.1143 16.9604 36.3009 16.5737 36.6743 16.2404C37.0476 15.907 37.5743 15.6537 38.2543 15.4804L38.3943 15.8004C38.1143 15.9204 37.8943 16.1137 37.7343 16.3804C37.5876 16.647 37.5143 16.9404 37.5143 17.2604C37.5143 17.847 37.7876 18.3004 38.3343 18.6204C38.8809 18.9404 39.6009 19.1004 40.4943 19.1004C41.0943 19.1004 41.6609 19.0204 42.1943 18.8604C42.7409 18.7137 43.1809 18.467 43.5143 18.1204C43.8609 17.7737 44.0343 17.327 44.0343 16.7804C44.0343 16.3537 43.8809 15.9937 43.5743 15.7004C43.2676 15.4204 42.6609 15.2804 41.7543 15.2804H40.3543C39.8876 15.2804 39.4543 15.2404 39.0543 15.1604C38.6543 15.0804 38.3276 14.927 38.0743 14.7004C37.8343 14.4604 37.7143 14.127 37.7143 13.7004C37.7143 13.2204 37.9143 12.767 38.3143 12.3404C38.7143 11.9137 39.3876 11.4937 40.3343 11.0804L40.5743 11.2604C40.1876 11.4737 39.8409 11.6937 39.5343 11.9204C39.2409 12.1337 39.0943 12.4004 39.0943 12.7204C39.0943 13.147 39.4009 13.3604 40.0143 13.3604H42.3943C43.0209 13.3604 43.5876 13.447 44.0943 13.6204C44.6009 13.7804 45.0076 14.0404 45.3143 14.4004C45.6209 14.7604 45.7743 15.2337 45.7743 15.8204C45.7743 16.447 45.5676 17.0337 45.1543 17.5804C44.7543 18.1404 44.1476 18.587 43.3343 18.9204C42.5209 19.267 41.5009 19.4404 40.2743 19.4404ZM40.3943 11.4204C39.7143 11.4204 39.0943 11.3137 38.5343 11.1004C37.9743 10.8737 37.5343 10.527 37.2143 10.0604C36.8943 9.5937 36.7343 8.9937 36.7343 8.26037C36.7343 7.52704 36.8943 6.92704 37.2143 6.46037C37.5343 5.98037 37.9743 5.6337 38.5343 5.42037C39.0943 5.1937 39.7143 5.08037 40.3943 5.08037C41.1009 5.08037 41.7276 5.1937 42.2743 5.42037C42.8209 5.6337 43.2543 5.98037 43.5743 6.46037C43.8943 6.92704 44.0543 7.52704 44.0543 8.26037C44.0543 8.9937 43.8943 9.5937 43.5743 10.0604C43.2543 10.527 42.8209 10.8737 42.2743 11.1004C41.7276 11.3137 41.1009 11.4204 40.3943 11.4204ZM40.3943 11.0604C40.8609 11.0604 41.2209 10.8604 41.4743 10.4604C41.7276 10.0604 41.8543 9.32704 41.8543 8.26037C41.8543 7.1937 41.7276 6.46037 41.4743 6.06037C41.2209 5.64704 40.8609 5.44037 40.3943 5.44037C39.9543 5.44037 39.6009 5.64704 39.3343 6.06037C39.0676 6.46037 38.9343 7.1937 38.9343 8.26037C38.9343 9.32704 39.0676 10.0604 39.3343 10.4604C39.6009 10.8604 39.9543 11.0604 40.3943 11.0604ZM43.3543 6.76037L42.9943 6.62037C43.1809 6.1537 43.5009 5.74704 43.9543 5.40037C44.4076 5.0537 44.8809 4.88037 45.3743 4.88037C45.7476 4.88037 46.0409 4.98704 46.2543 5.20037C46.4809 5.40037 46.5943 5.68704 46.5943 6.06037C46.5943 6.4737 46.4809 6.76704 46.2543 6.94037C46.0409 7.1137 45.8143 7.20037 45.5743 7.20037C45.3609 7.20037 45.1609 7.12704 44.9743 6.98037C44.8009 6.8337 44.7009 6.60704 44.6743 6.30037C44.6476 5.98037 44.7476 5.5737 44.9743 5.08037L45.1943 5.16037C44.6609 5.3737 44.2676 5.60037 44.0143 5.84037C43.7743 6.06704 43.5543 6.3737 43.3543 6.76037Z" fill="black" fill-opacity="0.5"/>
<path d="M32.9186 0.320312C33.3319 0.320312 33.6786 0.453645 33.9586 0.720312C34.2386 0.973645 34.3786 1.29365 34.3786 1.68031C34.3786 2.06698 34.2386 2.39365 33.9586 2.66031C33.6786 2.91365 33.3319 3.04031 32.9186 3.04031C32.5052 3.04031 32.1586 2.91365 31.8786 2.66031C31.5986 2.39365 31.4586 2.06698 31.4586 1.68031C31.4586 1.29365 31.5986 0.973645 31.8786 0.720312C32.1586 0.453645 32.5052 0.320312 32.9186 0.320312ZM34.1186 5.14031V13.8203C34.1186 14.3803 34.2252 14.7603 34.4386 14.9603C34.6652 15.1603 35.0386 15.2603 35.5586 15.2603V15.6803C35.3319 15.667 34.9786 15.6536 34.4986 15.6403C34.0319 15.6136 33.5519 15.6003 33.0586 15.6003C32.5919 15.6003 32.1119 15.6136 31.6186 15.6403C31.1252 15.6536 30.7586 15.667 30.5186 15.6803V15.2603C31.0386 15.2603 31.4052 15.1603 31.6186 14.9603C31.8452 14.7603 31.9586 14.3803 31.9586 13.8203V7.54031C31.9586 6.94031 31.8586 6.50031 31.6586 6.22031C31.4586 5.92698 31.0786 5.78031 30.5186 5.78031V5.36031C30.9452 5.40031 31.3586 5.42031 31.7586 5.42031C32.2119 5.42031 32.6319 5.40031 33.0186 5.36031C33.4186 5.30698 33.7852 5.23365 34.1186 5.14031Z" fill="black" fill-opacity="0.5"/>
<path d="M25.1951 5.08008C25.7285 5.08008 26.1885 5.16674 26.5751 5.34008C26.9751 5.50008 27.2618 5.64675 27.4351 5.78008C27.8751 6.12674 28.1485 5.90008 28.2551 5.10008H28.6951C28.6685 5.47341 28.6485 5.92674 28.6351 6.46008C28.6218 6.98008 28.6151 7.67341 28.6151 8.54008H28.1751C28.0951 8.04674 27.9551 7.56675 27.7551 7.10008C27.5685 6.63341 27.2885 6.24674 26.9151 5.94008C26.5551 5.63341 26.0818 5.48008 25.4951 5.48008C25.0551 5.48008 24.6885 5.60674 24.3951 5.86008C24.1018 6.10008 23.9551 6.46008 23.9551 6.94008C23.9551 7.34008 24.0751 7.68674 24.3151 7.98008C24.5551 8.27341 24.8618 8.54674 25.2351 8.80008C25.6218 9.05341 26.0351 9.32675 26.4751 9.62008C26.9685 9.95341 27.4085 10.2867 27.7951 10.6201C28.1951 10.9401 28.5085 11.3001 28.7351 11.7001C28.9751 12.1001 29.0951 12.5667 29.0951 13.1001C29.0951 13.7134 28.9285 14.2334 28.5951 14.6601C28.2751 15.0867 27.8485 15.4134 27.3151 15.6401C26.7818 15.8534 26.1951 15.9601 25.5551 15.9601C25.2351 15.9601 24.9351 15.9267 24.6551 15.8601C24.3751 15.8067 24.1151 15.7334 23.8751 15.6401C23.7285 15.5601 23.5818 15.4801 23.4351 15.4001C23.3018 15.3067 23.1685 15.2201 23.0351 15.1401C22.9018 15.0467 22.7818 15.0601 22.6751 15.1801C22.5685 15.3001 22.4885 15.5134 22.4351 15.8201H21.9951C22.0218 15.3934 22.0418 14.8734 22.0551 14.2601C22.0685 13.6467 22.0751 12.8334 22.0751 11.8201H22.5151C22.6085 12.5534 22.7485 13.2001 22.9351 13.7601C23.1218 14.3201 23.3951 14.7601 23.7551 15.0801C24.1285 15.3867 24.6351 15.5401 25.2751 15.5401C25.5285 15.5401 25.7818 15.4867 26.0351 15.3801C26.2885 15.2601 26.4951 15.0734 26.6551 14.8201C26.8285 14.5667 26.9151 14.2267 26.9151 13.8001C26.9151 13.2134 26.7085 12.7334 26.2951 12.3601C25.8951 11.9734 25.3751 11.5667 24.7351 11.1401C24.2818 10.8201 23.8485 10.5067 23.4351 10.2001C23.0351 9.88008 22.7085 9.52674 22.4551 9.14008C22.2018 8.74008 22.0751 8.26674 22.0751 7.72008C22.0751 7.12008 22.2151 6.62674 22.4951 6.24008C22.7885 5.85341 23.1751 5.56674 23.6551 5.38008C24.1351 5.18008 24.6485 5.08008 25.1951 5.08008Z" fill="black" fill-opacity="0.5"/>
<path d="M16.3382 5.08008C17.5116 5.08008 18.4316 5.43341 19.0982 6.14008C19.7649 6.84674 20.0982 7.96674 20.0982 9.50008H13.1982L13.1582 9.12008H17.9782C17.9916 8.46675 17.9382 7.86674 17.8182 7.32008C17.6982 6.76008 17.5116 6.31341 17.2582 5.98008C17.0049 5.64674 16.6716 5.48008 16.2582 5.48008C15.6849 5.48008 15.1849 5.78674 14.7582 6.40008C14.3449 7.00008 14.0916 7.96674 13.9982 9.30008L14.0582 9.40008C14.0449 9.58674 14.0316 9.79341 14.0182 10.0201C14.0049 10.2334 13.9982 10.4467 13.9982 10.6601C13.9982 11.5801 14.1382 12.3534 14.4182 12.9801C14.6982 13.6067 15.0649 14.0801 15.5182 14.4001C15.9716 14.7067 16.4316 14.8601 16.8982 14.8601C17.2582 14.8601 17.6049 14.8067 17.9382 14.7001C18.2849 14.5801 18.6116 14.3867 18.9182 14.1201C19.2249 13.8401 19.4982 13.4601 19.7382 12.9801L20.1382 13.1401C19.9782 13.5934 19.7316 14.0401 19.3982 14.4801C19.0649 14.9201 18.6382 15.2801 18.1182 15.5601C17.5982 15.8267 16.9916 15.9601 16.2982 15.9601C15.3649 15.9601 14.5516 15.7534 13.8582 15.3401C13.1649 14.9134 12.6316 14.3067 12.2582 13.5201C11.8849 12.7334 11.6982 11.8001 11.6982 10.7201C11.6982 9.53341 11.8916 8.52008 12.2782 7.68008C12.6649 6.84008 13.2049 6.20008 13.8982 5.76008C14.6049 5.30674 15.4182 5.08008 16.3382 5.08008Z" fill="black" fill-opacity="0.5"/>
<path d="M9 0V13.5C9 14.1 9.1 14.5467 9.3 14.84C9.51333 15.12 9.89333 15.26 10.44 15.26V15.68C10.0267 15.64 9.61333 15.62 9.2 15.62C8.74667 15.62 8.32 15.64 7.92 15.68C7.53333 15.72 7.17333 15.7933 6.84 15.9V2.4C6.84 1.8 6.73333 1.36 6.52 1.08C6.32 0.786667 5.94667 0.64 5.4 0.64V0.22C5.82667 0.26 6.24 0.28 6.64 0.28C7.08 0.28 7.5 0.26 7.9 0.22C8.3 0.166667 8.66667 0.0933337 9 0ZM4.5 5.08C5.08667 5.08 5.62 5.20667 6.1 5.46C6.59333 5.71333 6.94 6.14 7.14 6.74L6.9 6.96C6.71333 6.48 6.44 6.13333 6.08 5.92C5.72 5.69333 5.31333 5.58 4.86 5.58C4.1 5.58 3.48 5.98667 3 6.8C2.52 7.6 2.28667 8.84 2.3 10.52C2.3 11.6267 2.39333 12.5333 2.58 13.24C2.76667 13.9333 3.04 14.4467 3.4 14.78C3.77333 15.1133 4.22 15.28 4.74 15.28C5.26 15.28 5.72667 15.06 6.14 14.62C6.56667 14.18 6.82 13.5467 6.9 12.72L7.08 13.14C6.94667 14.0467 6.62667 14.7467 6.12 15.24C5.61333 15.72 4.93333 15.96 4.08 15.96C3.26667 15.96 2.54667 15.7667 1.92 15.38C1.30667 14.98 0.833333 14.38 0.5 13.58C0.166667 12.7667 0 11.7467 0 10.52C0 9.30667 0.2 8.3 0.6 7.5C1.01333 6.68667 1.56 6.08 2.24 5.68C2.92 5.28 3.67333 5.08 4.5 5.08Z" fill="black" fill-opacity="0.5"/>
</svg>
