<svg width="71" height="24" viewBox="0 0 71 24" fill="none" xmlns="http://www.w3.org/2000/svg">
<path d="M59.6906 23.7419C57.7121 23.7419 56.1959 23.0968 55.1422 21.8064C54.0884 20.5161 53.5615 18.6667 53.5615 16.2581C53.5615 14.129 53.9056 12.0968 54.5938 10.1613C55.3035 8.2043 56.2497 6.46237 57.4325 4.93548C58.6368 3.4086 59.9916 2.2043 61.497 1.32258C63.0239 0.440859 64.626 0 66.3035 0C67.7873 0 68.9379 0.354837 69.7551 1.06451C70.5723 1.75269 70.9809 2.74193 70.9809 4.03226C70.9809 5.04301 70.7336 6.2043 70.2389 7.51613H68.9809C69.1959 6.91398 69.3465 6.36559 69.4325 5.87097C69.5185 5.35484 69.5615 4.90323 69.5615 4.51613C69.5615 3.52688 69.2819 2.76344 68.7228 2.22581C68.1637 1.68817 67.3572 1.41935 66.3035 1.41935C65.0561 1.41935 63.8518 1.84946 62.6906 2.70968C61.5508 3.56989 60.5185 4.73118 59.5938 6.19355C58.6906 7.65591 57.9701 9.31183 57.4325 11.1613C56.8949 13.0108 56.626 14.9247 56.626 16.9032C56.626 18.7097 56.9164 20.0968 57.497 21.0645C58.0777 22.0108 58.9271 22.4839 60.0454 22.4839C60.7121 22.4839 61.3465 22.2796 61.9486 21.871C62.5508 21.4624 63.0884 20.9032 63.5615 20.1935C64.0346 19.4839 64.4002 18.6774 64.6583 17.7742C64.9379 16.871 65.0777 15.9247 65.0777 14.9355C65.0777 13.6452 64.7873 12.6774 64.2067 12.0323C63.6475 11.3871 62.7981 11.0645 61.6583 11.0645C60.7551 11.0645 59.9056 11.2796 59.1099 11.7097L58.8196 11C60.0669 10.1613 61.4647 9.74193 63.0131 9.74193C64.669 9.74193 65.9379 10.1935 66.8196 11.0968C67.7228 11.9785 68.1744 13.2581 68.1744 14.9355C68.1744 16.1613 67.9486 17.3118 67.497 18.3871C67.0669 19.4409 66.4647 20.3763 65.6906 21.1935C64.9164 21.9892 64.0131 22.6129 62.9809 23.0645C61.9701 23.5161 60.8733 23.7419 59.6906 23.7419Z" fill="black"/>
<path d="M49.3902 23.4516C49.3042 23.4086 49.0139 23.3656 48.5192 23.3226C48.0246 23.3011 47.4117 23.2903 46.6805 23.2903H34.8096L35.1322 22.0968C36.4225 21.3871 37.6805 20.6882 38.9063 20C40.1322 19.3118 41.2719 18.6236 42.3257 17.9355C43.3795 17.2258 44.2934 16.5054 45.0676 15.7742C45.8633 15.043 46.4762 14.2796 46.9063 13.4839C47.358 12.6882 47.5838 11.8495 47.5838 10.9677C47.5838 9.91397 47.2719 9.10752 46.6483 8.54838C46.0461 7.96773 45.2074 7.67741 44.1322 7.67741C43.2074 7.67741 42.3687 7.87096 41.616 8.25806C40.8633 8.62365 40.2612 9.12902 39.8096 9.77419C39.3795 10.3978 39.1644 11.0968 39.1644 11.871C39.1644 12.6236 39.3687 13.1935 39.7773 13.5806C40.1859 13.9462 40.7236 14.129 41.3902 14.129C41.7128 14.129 42.0031 14.0753 42.2612 13.9677C42.5192 13.8602 42.7881 13.6882 43.0676 13.4516L43.2934 14.5806C42.8633 15.0322 42.3795 15.3763 41.8418 15.6129C41.3257 15.8279 40.7773 15.9355 40.1967 15.9355C39.0784 15.9355 38.1859 15.6344 37.5192 15.0322C36.8526 14.4301 36.5192 13.6344 36.5192 12.6452C36.5192 11.5054 36.9063 10.4516 37.6805 9.48386C38.4762 8.51612 39.5192 7.74193 40.8096 7.16128C42.1214 6.55913 43.53 6.25806 45.0354 6.25806C46.7558 6.25806 48.1322 6.65591 49.1644 7.4516C50.1967 8.2473 50.7128 9.33332 50.7128 10.7097C50.7128 11.3763 50.5623 12.0322 50.2612 12.6774C49.9816 13.3226 49.5515 13.957 48.9709 14.5806C48.4117 15.2043 47.6913 15.8387 46.8096 16.4839C45.9494 17.1075 44.9279 17.7527 43.7451 18.4193C42.5838 19.0645 41.2719 19.7419 39.8096 20.4516V20.6452H46.3902C46.9924 20.6452 47.4762 20.5806 47.8418 20.4516C48.2289 20.3226 48.5408 20.0968 48.7773 19.7742C49.0354 19.4516 49.2719 18.9892 49.487 18.3871H50.6805C50.444 19.2473 50.2397 19.9892 50.0676 20.6129C49.9171 21.215 49.7881 21.7419 49.6805 22.1935C49.5945 22.6236 49.4977 23.043 49.3902 23.4516Z" fill="black"/>
<path d="M24.7828 23.7419C23.4495 23.7419 22.2774 23.4516 21.2667 22.871C20.2774 22.2688 19.514 21.4409 18.9764 20.3871C18.4387 19.3118 18.1699 18.0645 18.1699 16.6452C18.1699 15.2258 18.4172 13.8925 18.9119 12.6452C19.428 11.3978 20.1377 10.2903 21.0409 9.32257C21.9441 8.35483 22.9764 7.60214 24.1377 7.06451C25.299 6.52687 26.5248 6.25806 27.8151 6.25806C29.1484 6.25806 30.299 6.54838 31.2667 7.12902C32.2559 7.68816 33.0194 8.49461 33.557 9.54838C34.0947 10.6021 34.3635 11.8387 34.3635 13.2581C34.3635 14.6774 34.1054 16.0215 33.5893 17.2903C33.0731 18.5376 32.3742 19.6452 31.4925 20.6129C30.6108 21.5806 29.5893 22.3441 28.428 22.9032C27.2882 23.4624 26.0731 23.7419 24.7828 23.7419ZM24.8796 22.4839C25.7183 22.4839 26.5248 22.2258 27.299 21.7097C28.0731 21.172 28.7506 20.4409 29.3312 19.5161C29.9334 18.5699 30.4065 17.5054 30.7506 16.3226C31.0947 15.1398 31.2667 13.8925 31.2667 12.5806C31.2667 10.9032 30.9549 9.6344 30.3312 8.77419C29.7291 7.91397 28.8581 7.48386 27.7183 7.48386C26.8151 7.48386 25.9656 7.74193 25.1699 8.25806C24.3957 8.77419 23.7076 9.47311 23.1054 10.3548C22.5248 11.2366 22.0624 12.2581 21.7183 13.4193C21.3957 14.5591 21.2344 15.7742 21.2344 17.0645C21.2344 18.7849 21.5463 20.1183 22.1699 21.0645C22.8151 22.0107 23.7183 22.4839 24.8796 22.4839Z" fill="black"/>
<path d="M14.5806 23.4516C14.4946 23.4086 14.2043 23.3656 13.7097 23.3226C13.2151 23.3011 12.6022 23.2903 11.871 23.2903H0L0.322581 22.0968C1.6129 21.3871 2.87097 20.6882 4.09677 20C5.32258 19.3118 6.46237 18.6236 7.51613 17.9355C8.56989 17.2258 9.48387 16.5054 10.2581 15.7742C11.0538 15.043 11.6667 14.2796 12.0968 13.4839C12.5484 12.6882 12.7742 11.8495 12.7742 10.9677C12.7742 9.91397 12.4624 9.10752 11.8387 8.54838C11.2366 7.96773 10.3978 7.67741 9.32258 7.67741C8.39785 7.67741 7.55914 7.87096 6.80645 8.25806C6.05376 8.62365 5.45161 9.12902 5 9.77419C4.56989 10.3978 4.35484 11.0968 4.35484 11.871C4.35484 12.6236 4.55914 13.1935 4.96774 13.5806C5.37634 13.9462 5.91398 14.129 6.58065 14.129C6.90323 14.129 7.19355 14.0753 7.45161 13.9677C7.70968 13.8602 7.97849 13.6882 8.25806 13.4516L8.48387 14.5806C8.05376 15.0322 7.56989 15.3763 7.03226 15.6129C6.51613 15.8279 5.96774 15.9355 5.3871 15.9355C4.26882 15.9355 3.37634 15.6344 2.70968 15.0322C2.04301 14.4301 1.70968 13.6344 1.70968 12.6452C1.70968 11.5054 2.09677 10.4516 2.87097 9.48386C3.66667 8.51612 4.70968 7.74193 6 7.16128C7.31183 6.55913 8.72043 6.25806 10.2258 6.25806C11.9462 6.25806 13.3226 6.65591 14.3548 7.4516C15.3871 8.2473 15.9032 9.33332 15.9032 10.7097C15.9032 11.3763 15.7527 12.0322 15.4516 12.6774C15.172 13.3226 14.7419 13.957 14.1613 14.5806C13.6022 15.2043 12.8817 15.8387 12 16.4839C11.1398 17.1075 10.1183 17.7527 8.93548 18.4193C7.77419 19.0645 6.46237 19.7419 5 20.4516V20.6452H11.5806C12.1828 20.6452 12.6667 20.5806 13.0323 20.4516C13.4194 20.3226 13.7312 20.0968 13.9677 19.7742C14.2258 19.4516 14.4624 18.9892 14.6774 18.3871H15.871C15.6344 19.2473 15.4301 19.9892 15.2581 20.6129C15.1075 21.215 14.9785 21.7419 14.871 22.1935C14.7849 22.6236 14.6882 23.043 14.5806 23.4516Z" fill="black"/>
</svg>
