<svg width="744" height="192" viewBox="0 0 744 192" fill="none" xmlns="http://www.w3.org/2000/svg">
<path d="M615.905 188.76V2.59998H742.785V34.45H654.385V157.43H743.435V188.76H615.905ZM642.555 109.46V80.34H732.775V109.46H642.555Z" fill="black"/>
<path d="M493.039 188.76L423.489 2.59998H461.579L509.679 133.25L511.499 138.19H511.629L513.189 133.12L560.899 2.59998H597.819L526.709 188.76H493.039Z" fill="black"/>
<path d="M329.878 191.36C301.971 191.36 279.004 182.26 260.977 164.06C242.951 145.773 233.938 123.023 233.938 95.81C233.938 68.5967 242.908 45.8467 260.848 27.56C278.874 9.18666 301.841 0 329.748 0C357.568 0 380.534 9.18666 398.648 27.56C416.761 45.9333 425.818 68.6833 425.818 95.81C425.818 122.677 416.718 145.34 398.518 163.8C380.404 182.173 357.524 191.36 329.878 191.36ZM329.748 155.48C346.734 155.48 360.644 149.803 371.477 138.45C382.397 127.097 387.858 112.883 387.858 95.81C387.858 78.5633 382.397 64.2633 371.477 52.91C360.644 41.5567 346.734 35.88 329.748 35.88C312.674 35.88 298.764 41.5567 288.018 52.91C277.358 64.2633 272.028 78.5633 272.028 95.81C272.028 113.057 277.358 127.313 288.018 138.58C298.764 149.847 312.674 155.48 329.748 155.48Z" fill="black"/>
<path d="M0 188.76L0.129999 2.59998H45.89L104.65 137.02L163.28 2.59998H208.13V188.76H173.03V61.49V59.93L117.91 188.76H90.35L36.27 61.23V62.79V188.76H0Z" fill="black"/>
</svg>
