<svg width="1551" height="192" viewBox="0 0 1551 192" fill="none" xmlns="http://www.w3.org/2000/svg">
<path d="M1422.68 188.76V2.59998H1549.56V34.45H1461.16V157.43H1550.21V188.76H1422.68ZM1449.33 109.46V80.34H1539.55V109.46H1449.33Z" fill="black"/>
<path d="M1324.84 191.36C1296.58 191.36 1273.66 182.52 1256.07 164.84C1238.47 147.16 1229.68 124.237 1229.68 96.07C1229.68 67.47 1238.78 44.33 1256.98 26.65C1275.18 8.88333 1298.1 0 1325.75 0C1336.32 0 1345.59 1.12666 1353.57 3.37999C1361.63 5.54666 1368.91 8.53667 1375.41 12.35C1381.91 16.0767 1387.45 20.1067 1392.05 24.44C1396.73 28.7733 1399.07 30.94 1399.07 30.94L1374.37 58.11C1374.37 58.11 1372.89 56.55 1369.95 53.43C1367 50.2233 1363.45 47.3633 1359.29 44.85C1355.21 42.25 1350.53 40.1267 1345.25 38.48C1340.05 36.7467 1333.81 35.88 1326.53 35.88C1310.32 35.88 1296.71 41.47 1285.71 52.65C1274.7 63.7433 1269.2 78.2167 1269.2 96.07C1269.2 113.49 1274.48 127.747 1285.06 138.84C1295.63 149.933 1309.28 155.48 1326.01 155.48C1333.63 155.48 1340.35 154.613 1346.16 152.88C1351.96 151.147 1356.99 148.85 1361.24 145.99C1365.48 143.043 1368.99 139.88 1371.77 136.5C1374.54 133.12 1375.93 131.43 1375.93 131.43L1402.06 155.48C1402.06 155.48 1399.76 158.123 1395.17 163.41C1390.66 168.697 1385.07 173.463 1378.4 177.71C1371.72 181.87 1363.97 185.207 1355.13 187.72C1346.37 190.147 1336.28 191.36 1324.84 191.36Z" fill="black"/>
<path d="M1049.31 188.76L1049.44 2.59998H1085.58L1167.74 124.41V107.12V2.59998H1204.01V188.76H1172.81L1085.58 63.31V80.21V188.76H1049.31Z" fill="black"/>
<path d="M894.37 188.76V2.59998H1021.25V34.45H932.85V157.43H1021.9V188.76H894.37ZM921.02 109.46V80.34H1011.24V109.46H921.02Z" fill="black"/>
<path d="M820.676 188.76V2.59998H859.026V188.76H820.676Z" fill="black"/>
<path d="M648.213 188.76V2.59998H721.793C741.726 2.59998 757.5 7.66998 769.113 17.81C780.726 27.95 786.533 41.9466 786.533 59.8V59.93C786.533 76.4833 780.9 90.0033 769.633 100.49C758.453 110.977 743.46 116.22 724.653 116.22H664.853V87.88H718.023C728.076 87.88 735.703 85.54 740.903 80.86C746.103 76.18 748.703 69.3766 748.703 60.45C748.703 51.7833 746.06 45.11 740.773 40.43C735.573 35.6633 727.946 33.28 717.893 33.28H686.433V188.76H648.213ZM758.063 188.76L707.233 104.26L746.493 100.88L801.223 188.76H758.063Z" fill="black"/>
<path d="M493.269 188.76V2.59998H620.149V34.45H531.749V157.43H620.799V188.76H493.269ZM519.919 109.46V80.34H610.139V109.46H519.919Z" fill="black"/>
<path d="M329.946 188.76V2.59998H404.566C424.326 2.59998 440.1 8.2333 451.886 19.5C463.76 30.68 469.696 46.1933 469.696 66.04C469.696 85.8866 463.803 101.27 452.016 112.19C440.316 123.11 424.456 128.57 404.436 128.57H352.176V97.11H401.186C411.066 97.11 418.736 94.6833 424.196 89.83C429.743 84.9766 432.516 77.22 432.516 66.56C432.516 56.2466 429.483 48.7066 423.416 43.94C417.436 39.0866 409.42 36.66 399.366 36.66H368.166V188.76H329.946Z" fill="black"/>
<path d="M266.743 188.76L209.283 99.58L205.773 99.45L142.203 2.59998H184.973L238.273 84.89H242.823L311.593 188.76H266.743ZM138.563 188.76L206.943 85.15L212.923 85.02L262.713 2.59998H303.273L240.743 100.23H235.413L179.513 188.76H138.563Z" fill="black"/>
<path d="M0 188.76V2.59998H126.88V34.45H38.48V157.43H127.53V188.76H0ZM26.65 109.46V80.34H116.87V109.46H26.65Z" fill="black"/>
</svg>
