<svg width="1117" height="187" viewBox="0 0 1117 187" fill="none" xmlns="http://www.w3.org/2000/svg">
<path d="M1011.43 109.98L943.183 0H984.913L1025.34 65.65L1030.02 73.06L1034.44 65.91L1075.26 0H1116.34L1046.53 109.98H1011.43ZM1010.13 186.16V94.9H1048.22V186.16H1010.13Z" fill="black"/>
<path d="M792.562 186.16L865.492 0H900.072L973.002 186.16H933.482L883.042 53.17L882.002 50.18L880.832 53.17L830.132 186.16H792.562ZM828.052 144.82L837.542 118.95H926.722L936.472 144.82H828.052Z" fill="black"/>
<path d="M614.671 186.16L560.851 0H598.421L634.431 125.71L635.341 129.35L636.121 125.71L673.301 0H705.931L741.811 125.58L742.721 128.96H742.851L743.761 125.58L778.601 0H815.131L760.791 186.16H726.991L689.031 54.99L688.121 51.22H687.991L687.081 54.86L648.601 186.16H614.671Z" fill="black"/>
<path d="M361.258 186.16V0H488.138V31.85H399.738V154.83H488.788V186.16H361.258ZM387.908 106.86V77.74H478.128V106.86H387.908Z" fill="black"/>
<path d="M287.804 186.16V0H326.024V186.16H287.804ZM169.244 186.16V0H207.464V186.16H169.244ZM187.574 109.59V75.01H307.954V109.59H187.574Z" fill="black"/>
<path d="M55.25 186.16V15.99H93.47V186.16H55.25ZM0 34.58V0H148.07V34.58H0Z" fill="black"/>
</svg>
