<svg width="911" height="198" viewBox="0 0 911 198" fill="none" xmlns="http://www.w3.org/2000/svg">
<path d="M39.4585 87.825C36.5585 87.825 34.2085 86.85 32.4085 84.9C30.6085 82.9 29.7085 80.225 29.7085 76.875C29.7085 76.425 29.7085 75.975 29.7085 75.525C29.7585 75.075 29.8085 74.6 29.8585 74.1C30.2585 71.3 30.9335 68.925 31.8835 66.975C32.8835 64.975 33.9335 63 35.0335 61.05C36.1835 59.1 37.1585 56.825 37.9585 54.225C38.8085 51.575 39.2585 48.225 39.3085 44.175C35.8085 46.225 33.1085 48.275 31.2085 50.325C29.3085 52.325 27.7835 54.3 26.6335 56.25C25.5335 58.15 24.3835 60.025 23.1835 61.875C21.9835 63.725 20.2835 65.525 18.0835 67.275C17.6835 67.625 17.2835 67.9 16.8835 68.1C16.5335 68.3 16.1585 68.525 15.7585 68.775C12.8085 70.475 10.0335 71.025 7.43352 70.425C4.88352 69.825 2.88352 68.3 1.43352 65.85C-0.0164777 63.35 -0.366477 60.825 0.383523 58.275C1.18352 55.725 3.05852 53.6 6.00852 51.9C6.40852 51.65 6.78352 51.45 7.13352 51.3C7.53352 51.1 7.98352 50.9 8.48352 50.7C11.0835 49.6 13.4835 49 15.6835 48.9C17.8835 48.75 20.1085 48.675 22.3585 48.675C24.6085 48.675 27.0585 48.375 29.7085 47.775C32.4085 47.175 35.5335 45.875 39.0835 43.875C35.5335 41.875 32.4085 40.575 29.7085 39.975C27.0585 39.375 24.6085 39.1 22.3585 39.15C20.1085 39.15 17.8835 39.075 15.6835 38.925C13.4835 38.775 11.0835 38.175 8.48352 37.125C7.98352 36.925 7.53352 36.725 7.13352 36.525C6.78352 36.275 6.40852 36.05 6.00852 35.85C3.05852 34.2 1.18352 32.1 0.383523 29.55C-0.366477 26.95 -0.0164777 24.425 1.43352 21.975C2.88352 19.475 4.88352 17.95 7.43352 17.4C10.0335 16.8 12.8085 17.325 15.7585 18.975C16.1585 19.175 16.5335 19.4 16.8835 19.65C17.2835 19.85 17.6835 20.125 18.0835 20.475C20.2835 22.225 21.9835 24.025 23.1835 25.875C24.3835 27.725 25.5335 29.625 26.6335 31.575C27.7835 33.475 29.3085 35.45 31.2085 37.5C33.1085 39.5 35.8085 41.525 39.3085 43.575C39.2585 39.525 38.8085 36.2 37.9585 33.6C37.1585 31 36.1835 28.725 35.0335 26.775C33.9335 24.775 32.8835 22.8 31.8835 20.85C30.9335 18.9 30.2585 16.525 29.8585 13.725C29.8085 13.175 29.7585 12.7 29.7085 12.3C29.7085 11.85 29.7085 11.4 29.7085 10.95C29.7085 7.55 30.6085 4.875 32.4085 2.925C34.2085 0.975001 36.5585 0 39.4585 0C42.3085 0 44.6335 0.975001 46.4335 2.925C48.2335 4.875 49.1335 7.55 49.1335 10.95C49.1335 11.4 49.1335 11.85 49.1335 12.3C49.1335 12.7 49.0835 13.175 48.9835 13.725C48.6335 16.525 47.9585 18.9 46.9585 20.85C45.9585 22.8 44.8835 24.775 43.7335 26.775C42.6335 28.725 41.6585 31 40.8085 33.6C40.0085 36.2 39.6085 39.525 39.6085 43.575C43.1585 41.525 45.8585 39.5 47.7085 37.5C49.5585 35.45 51.0335 33.475 52.1335 31.575C53.2835 29.625 54.4585 27.725 55.6585 25.875C56.8585 24.025 58.5585 22.225 60.7585 20.475C61.1585 20.125 61.5585 19.85 61.9585 19.65C62.3585 19.4 62.7335 19.175 63.0835 18.975C66.0335 17.325 68.7835 16.8 71.3335 17.4C73.9335 17.95 75.9585 19.475 77.4085 21.975C78.8585 24.425 79.1835 26.95 78.3835 29.55C77.6335 32.1 75.7835 34.2 72.8335 35.85C72.4835 36.05 72.1085 36.275 71.7085 36.525C71.3085 36.725 70.8585 36.925 70.3585 37.125C67.7585 38.175 65.3585 38.775 63.1585 38.925C60.9585 39.075 58.7335 39.15 56.4835 39.15C54.2335 39.1 51.7585 39.375 49.0585 39.975C46.4085 40.575 43.3085 41.875 39.7585 43.875C43.3085 45.875 46.4085 47.175 49.0585 47.775C51.7585 48.375 54.2335 48.675 56.4835 48.675C58.7335 48.675 60.9585 48.75 63.1585 48.9C65.3585 49.05 67.7585 49.65 70.3585 50.7C70.8585 50.9 71.3085 51.1 71.7085 51.3C72.1085 51.45 72.4835 51.65 72.8335 51.9C75.7835 53.6 77.6335 55.725 78.3835 58.275C79.1835 60.825 78.8585 63.35 77.4085 65.85C75.9585 68.3 73.9335 69.825 71.3335 70.425C68.7835 71.025 66.0335 70.475 63.0835 68.775C62.7335 68.525 62.3585 68.3 61.9585 68.1C61.5585 67.9 61.1585 67.625 60.7585 67.275C58.5585 65.525 56.8585 63.725 55.6585 61.875C54.4585 60.025 53.2835 58.15 52.1335 56.25C51.0335 54.3 49.5585 52.325 47.7085 50.325C45.8585 48.275 43.1585 46.225 39.6085 44.175C39.6085 48.225 40.0085 51.575 40.8085 54.225C41.6585 56.825 42.6335 59.1 43.7335 61.05C44.8335 63 45.8835 64.975 46.8835 66.975C47.8835 68.925 48.5835 71.3 48.9835 74.1C49.0835 74.6 49.1335 75.075 49.1335 75.525C49.1335 75.975 49.1335 76.425 49.1335 76.875C49.1335 80.225 48.2335 82.9 46.4335 84.9C44.6335 86.85 42.3085 87.825 39.4585 87.825Z" fill="black"/>
<path d="M157.734 198C149.6 194.467 142.134 189.533 135.334 183.2C128.534 176.867 122.634 169.4 117.634 160.8C112.7 152.133 108.867 142.6 106.134 132.2C103.467 121.733 102.134 110.667 102.134 99C102.134 83.4667 104.5 69.4 109.234 56.8C113.967 44.2 120.5 33.4333 128.834 24.5C137.234 15.5 146.867 8.66666 157.734 4L157.934 4.4C151.734 8.4 146.334 13.7667 141.734 20.5C137.134 27.1667 133.3 34.7667 130.234 43.3C127.167 51.8333 124.867 60.8667 123.334 70.4C121.867 79.8667 121.134 89.4 121.134 99C121.134 108.6 121.867 118.367 123.334 128.3C124.867 138.167 127.167 147.633 130.234 156.7C133.3 165.767 137.134 173.833 141.734 180.9C146.334 188.033 151.734 193.6 157.934 197.6L157.734 198Z" fill="black"/>
<path d="M854.933 198L854.733 197.6C860.933 193.6 866.333 188.233 870.933 181.5C875.533 174.833 879.367 167.233 882.433 158.7C885.5 150.167 887.767 141.167 889.233 131.7C890.767 122.167 891.533 112.6 891.533 103C891.533 93.4 890.767 83.6667 889.233 73.8C887.767 63.8667 885.5 54.3667 882.433 45.3C879.367 36.2333 875.533 28.1667 870.933 21.1C866.333 13.9667 860.933 8.4 854.733 4.4L854.933 4C863.067 7.46666 870.533 12.4 877.333 18.8C884.133 25.1333 890 32.6333 894.933 41.3C899.933 49.9 903.767 59.4333 906.433 69.9C909.167 80.3 910.533 91.3333 910.533 103C910.533 118.533 908.167 132.6 903.433 145.2C898.7 157.8 892.133 168.567 883.733 177.5C875.4 186.5 865.8 193.333 854.933 198Z" fill="black"/>
</svg>
