<svg width="964" height="192" viewBox="0 0 964 192" fill="none" xmlns="http://www.w3.org/2000/svg">
<path d="M836.136 188.76V2.59998H963.016V34.45H874.616V157.43H963.666V188.76H836.136ZM862.786 109.46V80.34H953.006V109.46H862.786Z" fill="black"/>
<path d="M722.143 188.76V18.59H760.363V188.76H722.143ZM666.893 37.18V2.59998H814.963V37.18H666.893Z" fill="black"/>
<path d="M503.639 188.76L576.569 2.59998H611.149L684.079 188.76H644.559L594.119 55.77L593.079 52.78L591.909 55.77L541.209 188.76H503.639ZM539.129 147.42L548.619 121.55H637.799L647.549 147.42H539.129Z" fill="black"/>
<path d="M365.465 188.76V2.59998H492.345V34.45H403.945V157.43H492.995V188.76H365.465ZM392.115 109.46V80.34H482.335V109.46H392.115Z" fill="black"/>
<path d="M193.002 188.76V2.59998H266.582C286.515 2.59998 302.289 7.66998 313.902 17.81C325.515 27.95 331.322 41.9466 331.322 59.8V59.93C331.322 76.4833 325.689 90.0033 314.422 100.49C303.242 110.977 288.249 116.22 269.442 116.22H209.642V87.88H262.812C272.865 87.88 280.492 85.54 285.692 80.86C290.892 76.18 293.492 69.3766 293.492 60.45C293.492 51.7833 290.849 45.11 285.562 40.43C280.362 35.6633 272.735 33.28 262.682 33.28H231.222V188.76H193.002ZM302.852 188.76L252.022 104.26L291.282 100.88L346.012 188.76H302.852Z" fill="black"/>
<path d="M95.16 191.36C66.9067 191.36 43.9833 182.52 26.39 164.84C8.79667 147.16 0 124.237 0 96.07C0 67.47 9.1 44.33 27.3 26.65C45.5 8.88333 68.4233 0 96.07 0C106.643 0 115.917 1.12666 123.89 3.37999C131.95 5.54666 139.23 8.53667 145.73 12.35C152.23 16.0767 157.777 20.1067 162.37 24.44C167.05 28.7733 169.39 30.94 169.39 30.94L144.69 58.11C144.69 58.11 143.217 56.55 140.27 53.43C137.323 50.2233 133.77 47.3633 129.61 44.85C125.537 42.25 120.857 40.1267 115.57 38.48C110.37 36.7467 104.13 35.88 96.85 35.88C80.6433 35.88 67.0367 41.47 56.03 52.65C45.0233 63.7433 39.52 78.2167 39.52 96.07C39.52 113.49 44.8067 127.747 55.38 138.84C65.9533 149.933 79.6033 155.48 96.33 155.48C103.957 155.48 110.673 154.613 116.48 152.88C122.287 151.147 127.313 148.85 131.56 145.99C135.807 143.043 139.317 139.88 142.09 136.5C144.863 133.12 146.25 131.43 146.25 131.43L172.38 155.48C172.38 155.48 170.083 158.123 165.49 163.41C160.983 168.697 155.393 173.463 148.72 177.71C142.047 181.87 134.29 185.207 125.45 187.72C116.697 190.147 106.6 191.36 95.16 191.36Z" fill="black"/>
</svg>
