<svg width="125" height="34" viewBox="0 0 125 34" fill="none" xmlns="http://www.w3.org/2000/svg">
<path d="M114.77 26.0968C113.092 26.0968 111.781 25.5484 110.834 24.4516C109.91 23.3333 109.447 21.785 109.447 19.8065C109.447 18.3226 109.695 16.914 110.189 15.5807C110.684 14.2258 111.361 13.0323 112.221 12C113.103 10.9462 114.092 10.1183 115.189 9.51614C116.307 8.91399 117.48 8.61292 118.705 8.61292C120.383 8.61292 121.695 9.17205 122.641 10.2903C123.587 11.3871 124.06 12.9247 124.06 14.9032C124.06 16.3871 123.813 17.8065 123.318 19.1613C122.824 20.4946 122.135 21.6882 121.254 22.7419C120.393 23.7742 119.404 24.5914 118.286 25.1936C117.168 25.7957 115.996 26.0968 114.77 26.0968ZM114.834 25.4194C115.458 25.4194 116.071 25.2043 116.673 24.7742C117.275 24.3441 117.834 23.7527 118.35 23C118.867 22.2473 119.318 21.3871 119.705 20.4194C120.114 19.4301 120.426 18.3764 120.641 17.2581C120.877 16.1398 120.996 15.0108 120.996 13.871C120.996 12.3441 120.802 11.2043 120.415 10.4516C120.028 9.67743 119.458 9.29033 118.705 9.29033C118.082 9.29033 117.458 9.50539 116.834 9.9355C116.232 10.3656 115.673 10.957 115.157 11.7097C114.641 12.4409 114.178 13.3011 113.77 14.2903C113.383 15.2581 113.071 16.3011 112.834 17.4194C112.619 18.5376 112.512 19.6774 112.512 20.8387C112.512 22.3441 112.705 23.4839 113.092 24.2581C113.501 25.0323 114.082 25.4194 114.834 25.4194Z" fill="black"/>
<path d="M103.288 26.0968C102.471 26.0968 101.804 25.8817 101.288 25.4516C100.793 25.0215 100.492 24.4409 100.385 23.7097C100.277 22.957 100.385 22.1183 100.707 21.1935L103.514 12.8387C103.815 11.9785 103.879 11.2796 103.707 10.7419C103.557 10.2043 103.191 9.93548 102.61 9.93548C102.137 9.93548 101.675 10.1398 101.223 10.5484C100.772 10.957 100.331 11.5699 99.9007 12.3871L99.2555 13.5806H98.5781L99.3201 12.2258C99.9867 10.9355 100.675 10.0108 101.385 9.45161C102.094 8.89247 102.901 8.6129 103.804 8.6129C104.621 8.6129 105.277 8.82796 105.772 9.25806C106.266 9.66667 106.567 10.2473 106.675 11C106.804 11.7312 106.696 12.5699 106.352 13.5161L103.578 21.8387C103.277 22.7204 103.202 23.4301 103.352 23.9677C103.524 24.4839 103.89 24.7419 104.449 24.7419C105.417 24.7419 106.32 23.9247 107.159 22.2903L107.804 21.0968H108.481L107.772 22.4839C107.084 23.7742 106.385 24.6989 105.675 25.2581C104.987 25.8172 104.191 26.0968 103.288 26.0968ZM106.481 5.09678C105.944 5.09678 105.481 4.91398 105.094 4.54839C104.729 4.16129 104.546 3.68817 104.546 3.12903C104.546 2.54839 104.772 2.05376 105.223 1.64516C105.675 1.21505 106.191 1 106.772 1C107.331 1 107.793 1.19355 108.159 1.58065C108.546 1.94624 108.739 2.39785 108.739 2.93548C108.739 3.51613 108.514 4.02151 108.062 4.45161C107.61 4.88172 107.084 5.09678 106.481 5.09678Z" fill="black"/>
<path d="M93.1921 26.0968C92.3749 26.0968 91.7297 25.8925 91.2566 25.4839C90.7835 25.0753 90.4824 24.5054 90.3534 23.7742C90.2459 23.0215 90.3319 22.172 90.6115 21.2258L95.2244 4.80645C95.4179 4.11828 95.4717 3.56989 95.3857 3.16129C95.3211 2.75269 95.0631 2.46237 94.6115 2.29032C94.1814 2.09678 93.5254 2 92.6437 2L92.8373 1.32258C94.2351 1.30107 95.4824 1.18279 96.5792 0.967741C97.6975 0.752687 98.7082 0.430107 99.6115 0L93.4502 21.9032C93.2136 22.7634 93.1598 23.4516 93.2889 23.9677C93.4394 24.4839 93.7943 24.7419 94.3534 24.7419C94.8265 24.7419 95.2889 24.5376 95.7405 24.129C96.2136 23.7204 96.6652 23.1075 97.0953 22.2903L97.7082 21.0968H98.3857L97.676 22.4839C97.3534 23.1075 96.9771 23.6989 96.5469 24.2581C96.1168 24.7957 95.633 25.2366 95.0953 25.5806C94.5577 25.9247 93.9233 26.0968 93.1921 26.0968Z" fill="black"/>
<path d="M79.4144 26.0968C77.737 26.0968 76.4251 25.5484 75.4789 24.4516C74.5542 23.3333 74.0918 21.785 74.0918 19.8065C74.0918 18.3226 74.3391 16.914 74.8337 15.5807C75.3284 14.2258 76.0058 13.0323 76.866 12C77.7477 10.9462 78.737 10.1183 79.8337 9.51614C80.952 8.91399 82.1241 8.61292 83.3499 8.61292C85.0273 8.61292 86.3391 9.17205 87.2853 10.2903C88.2316 11.3871 88.7047 12.9247 88.7047 14.9032C88.7047 16.3871 88.4574 17.8065 87.9628 19.1613C87.4681 20.4946 86.78 21.6882 85.8982 22.7419C85.038 23.7742 84.0488 24.5914 82.9305 25.1936C81.8122 25.7957 80.6402 26.0968 79.4144 26.0968ZM79.4789 25.4194C80.1026 25.4194 80.7155 25.2043 81.3176 24.7742C81.9198 24.3441 82.4789 23.7527 82.995 23C83.5112 22.2473 83.9628 21.3871 84.3499 20.4194C84.7585 19.4301 85.0703 18.3764 85.2853 17.2581C85.5219 16.1398 85.6402 15.0108 85.6402 13.871C85.6402 12.3441 85.4466 11.2043 85.0595 10.4516C84.6724 9.67743 84.1025 9.29033 83.3499 9.29033C82.7262 9.29033 82.1026 9.50539 81.4789 9.9355C80.8767 10.3656 80.3176 10.957 79.8015 11.7097C79.2853 12.4409 78.823 13.3011 78.4144 14.2903C78.0273 15.2581 77.7155 16.3011 77.4789 17.4194C77.2638 18.5376 77.1563 19.6774 77.1563 20.8387C77.1563 22.3441 77.3499 23.4839 77.737 24.2581C78.1456 25.0323 78.7262 25.4194 79.4789 25.4194Z" fill="black"/>
<path d="M59.2153 33.3548C58.4411 33.3548 57.8497 33.2043 57.4411 32.9032C57.011 32.6236 56.7959 32.215 56.7959 31.6774C56.7959 31.2258 56.9572 30.8494 57.2798 30.5483C57.5808 30.2473 57.9679 30.0967 58.4411 30.0967C58.7851 30.0967 59.1077 30.172 59.4088 30.3225C59.6884 30.4946 59.9679 30.6881 60.2475 30.9032C60.5056 31.1182 60.7636 31.3118 61.0217 31.4838C61.2798 31.6559 61.5593 31.7419 61.8604 31.7419C62.2905 31.7419 62.6561 31.5806 62.9572 31.258C63.2583 30.9354 63.5056 30.3655 63.6991 29.5483L68.7636 7.99996C69.3658 5.46232 70.312 3.56985 71.6024 2.32254C72.8927 1.05372 74.5378 0.419312 76.5378 0.419312C77.8282 0.419312 78.8282 0.666623 79.5378 1.16125C80.2475 1.63437 80.6024 2.30103 80.6024 3.16125C80.6024 3.87092 80.3658 4.48383 79.8927 4.99996C79.4411 5.51609 78.8927 5.77415 78.2475 5.77415C77.9034 5.77415 77.6239 5.68813 77.4088 5.51609C77.1937 5.32254 77.0862 5.06447 77.0862 4.74189C77.0862 4.41931 77.1722 4.10748 77.3443 3.80641C77.5163 3.50533 77.6776 3.20426 77.8282 2.90318C78.0002 2.60211 78.0862 2.30103 78.0862 1.99996C78.0862 1.3763 77.6454 1.06447 76.7636 1.06447C75.6454 1.06447 74.6991 1.56985 73.9249 2.5806C73.1507 3.56985 72.5271 5.06447 72.054 7.06447L68.2475 23.1935C67.7529 25.2365 67.0432 27.0107 66.1185 28.5161C65.2153 30.043 64.1722 31.2258 62.9894 32.0645C61.8067 32.9247 60.5486 33.3548 59.2153 33.3548ZM64.9894 9.74189L65.183 9.06447H75.7959L75.6346 9.74189H64.9894Z" fill="black"/>
<path d="M56.9658 26.0967C55.697 26.0967 54.783 25.6451 54.2238 24.7419C53.6862 23.8387 53.6217 22.6774 54.0303 21.258L58.8045 4.16124C59.3636 4.13974 59.912 4.08597 60.4496 3.99995C60.9873 3.91393 61.5034 3.8064 61.998 3.67737L56.9013 21.9354C56.6432 22.8602 56.6109 23.5591 56.8045 24.0322C57.0195 24.5053 57.4389 24.7419 58.0625 24.7419C58.6002 24.7419 59.1056 24.5376 59.5787 24.129C60.0733 23.6989 60.5464 23.0752 60.998 22.258L61.6109 21.0967H62.2884L61.4174 22.7741C61.1378 23.3118 60.783 23.8387 60.3529 24.3548C59.9443 24.8494 59.4604 25.2688 58.9013 25.6129C58.3636 25.9354 57.7185 26.0967 56.9658 26.0967ZM53.9013 9.74188L54.0625 9.06447H65.2561L65.0948 9.74188H53.9013Z" fill="black"/>
<path d="M39.596 25.6452L43.2089 12.8065C43.467 11.9032 43.51 11.2043 43.338 10.7097C43.1659 10.1936 42.8111 9.9355 42.2734 9.9355C41.8003 9.9355 41.338 10.1505 40.8863 10.5807C40.4347 10.9893 40.0046 11.5914 39.596 12.3871L38.9509 13.5807H38.2734L38.9831 12.2258C39.3272 11.5807 39.7035 10.9893 40.1121 10.4516C40.5423 9.89248 41.0261 9.45162 41.5638 9.12904C42.1229 8.78496 42.7573 8.61292 43.467 8.61292C44.3057 8.61292 44.9616 8.81721 45.4347 9.22582C45.9078 9.63442 46.1982 10.2043 46.3057 10.9355C46.4132 11.6667 46.338 12.5054 46.0799 13.4516L42.6605 25.6452H39.596ZM50.8863 14.1936C50.5207 14.1936 50.2304 14.086 50.0154 13.871C49.8003 13.6344 49.6928 13.3333 49.6928 12.9678C49.6928 12.6452 49.7681 12.3333 49.9186 12.0323C50.0906 11.7097 50.2519 11.4086 50.4025 11.129C50.553 10.8495 50.6283 10.5914 50.6283 10.3549C50.6283 9.96775 50.338 9.7742 49.7573 9.7742C49.1337 9.7742 48.4885 10.0215 47.8218 10.5161C47.1552 10.9893 46.5638 11.6559 46.0476 12.5161V11.9678C46.6498 10.871 47.3595 10.043 48.1767 9.48388C49.0154 8.90324 49.8971 8.61292 50.8218 8.61292C51.6175 8.61292 52.2304 8.81721 52.6605 9.22582C53.1121 9.63442 53.338 10.2151 53.338 10.9678C53.338 11.5269 53.2197 12.0538 52.9831 12.5484C52.7466 13.043 52.4455 13.4409 52.0799 13.7419C51.7143 14.043 51.3164 14.1936 50.8863 14.1936Z" fill="black"/>
<path d="M28.2747 26.0968C26.5973 26.0968 25.2855 25.5484 24.3392 24.4516C23.4145 23.3333 22.9521 21.785 22.9521 19.8065C22.9521 18.3226 23.1995 16.914 23.6941 15.5807C24.1887 14.2258 24.8661 13.0323 25.7263 12C26.6081 10.9462 27.5973 10.1183 28.6941 9.51614C29.8124 8.91399 30.9844 8.61292 32.2102 8.61292C33.8876 8.61292 35.1995 9.17205 36.1457 10.2903C37.0919 11.3871 37.5651 12.9247 37.5651 14.9032C37.5651 16.3871 37.3177 17.8065 36.8231 19.1613C36.3285 20.4946 35.6403 21.6882 34.7586 22.7419C33.8984 23.7742 32.9091 24.5914 31.7909 25.1936C30.6726 25.7957 29.5005 26.0968 28.2747 26.0968ZM28.3392 25.4194C28.9629 25.4194 29.5758 25.2043 30.178 24.7742C30.7801 24.3441 31.3392 23.7527 31.8554 23C32.3715 22.2473 32.8231 21.3871 33.2102 20.4194C33.6188 19.4301 33.9306 18.3764 34.1457 17.2581C34.3823 16.1398 34.5005 15.0108 34.5005 13.871C34.5005 12.3441 34.307 11.2043 33.9199 10.4516C33.5328 9.67743 32.9629 9.29033 32.2102 9.29033C31.5866 9.29033 30.9629 9.50539 30.3392 9.9355C29.7371 10.3656 29.178 10.957 28.6618 11.7097C28.1457 12.4409 27.6833 13.3011 27.2747 14.2903C26.8876 15.2581 26.5758 16.3011 26.3392 17.4194C26.1242 18.5376 26.0167 19.6774 26.0167 20.8387C26.0167 22.3441 26.2102 23.4839 26.5973 24.2581C27.0059 25.0323 27.5866 25.4194 28.3392 25.4194Z" fill="black"/>
<path d="M0 33.0968L0.193548 32.4194C0.88172 32.3764 1.44086 32.2796 1.87097 32.129C2.30108 31.9785 2.64516 31.7312 2.90323 31.3871C3.16129 31.043 3.36559 30.5699 3.51613 29.9678L8.32258 12.8065C8.58064 11.9032 8.62366 11.2043 8.45161 10.7097C8.30107 10.1936 7.94624 9.9355 7.3871 9.9355C6.93548 9.9355 6.48387 10.1398 6.03226 10.5484C5.58065 10.957 5.13978 11.5699 4.70968 12.3871L4.06452 13.5807H3.3871L4.09677 12.2258C4.44086 11.5807 4.8172 10.9893 5.22581 10.4516C5.65591 9.89248 6.13978 9.45162 6.67742 9.12904C7.23656 8.78496 7.87097 8.61292 8.58064 8.61292C9.76344 8.61292 10.5914 9.05378 11.0645 9.9355C11.5591 10.8172 11.6021 11.9893 11.1935 13.4516L6.6129 29.7742C6.44086 30.3979 6.43011 30.8925 6.58064 31.2581C6.73118 31.6237 7.07527 31.8925 7.6129 32.0645C8.15054 32.2366 8.90323 32.3548 9.87097 32.4194L9.67742 33.0968C9.35484 33.0753 8.91398 33.0538 8.35484 33.0323C7.8172 33.0323 7.22581 33.0215 6.58064 33C5.93548 32.9785 5.30107 32.9678 4.67742 32.9678C3.73118 32.9678 2.83871 32.9785 2 33C1.13978 33.043 0.473118 33.0753 0 33.0968ZM12.0645 26.0968C11.1183 26.0968 10.2903 25.871 9.58064 25.4194C8.89247 24.9462 8.4086 24.3226 8.12903 23.5484L8.32258 22.9678C8.62366 23.5699 9.01075 24.0323 9.48387 24.3549C9.95699 24.6559 10.5054 24.8065 11.129 24.8065C11.9462 24.8065 12.7312 24.5376 13.4839 24C14.2366 23.4624 14.9032 22.7312 15.4839 21.8065C16.0645 20.8817 16.5269 19.828 16.871 18.6452C17.2151 17.4409 17.3871 16.1828 17.3871 14.871C17.3871 13.3226 17.129 12.1505 16.6129 11.3549C16.0968 10.5376 15.3441 10.129 14.3548 10.129C13.7527 10.129 13.172 10.3226 12.6129 10.7097C12.0753 11.0753 11.6021 11.6129 11.1935 12.3226V11.8065C11.7527 10.7527 12.4301 9.957 13.2258 9.41936C14.0215 8.88173 14.8925 8.61292 15.8387 8.61292C17.2796 8.61292 18.4086 9.17205 19.2258 10.2903C20.0645 11.3871 20.4839 12.8817 20.4839 14.7742C20.4839 16.2151 20.2473 17.6129 19.7742 18.9678C19.3226 20.3226 18.6882 21.5376 17.871 22.6129C17.0753 23.6882 16.172 24.5376 15.1613 25.1613C14.172 25.785 13.1398 26.0968 12.0645 26.0968Z" fill="black"/>
</svg>
