<svg width="103" height="14" viewBox="0 0 103 14" fill="none" xmlns="http://www.w3.org/2000/svg">
<path d="M101.192 11.1602C101.592 11.1602 101.926 11.2935 102.192 11.5602C102.472 11.8135 102.612 12.1402 102.612 12.5402C102.612 12.9268 102.472 13.2535 102.192 13.5202C101.926 13.7735 101.592 13.9002 101.192 13.9002C100.792 13.9002 100.452 13.7735 100.172 13.5202C99.9058 13.2535 99.7725 12.9268 99.7725 12.5402C99.7725 12.1402 99.9058 11.8135 100.172 11.5602C100.452 11.2935 100.792 11.1602 101.192 11.1602Z" fill="black" fill-opacity="0.7"/>
<path d="M94.015 3.02002C95.1883 3.02002 96.1083 3.37335 96.775 4.08002C97.4417 4.78669 97.775 5.90669 97.775 7.44002H90.875L90.835 7.06002H95.655C95.6683 6.40669 95.615 5.80669 95.495 5.26002C95.375 4.70002 95.1883 4.25335 94.935 3.92002C94.6817 3.58669 94.3483 3.42002 93.935 3.42002C93.3617 3.42002 92.8617 3.72669 92.435 4.34002C92.0217 4.94002 91.7683 5.90669 91.675 7.24002L91.735 7.34002C91.7217 7.52669 91.7083 7.73335 91.695 7.96002C91.6817 8.17335 91.675 8.38669 91.675 8.60002C91.675 9.52002 91.815 10.2934 92.095 10.92C92.375 11.5467 92.7417 12.02 93.195 12.34C93.6483 12.6467 94.1083 12.8 94.575 12.8C94.935 12.8 95.2817 12.7467 95.615 12.64C95.9617 12.52 96.2883 12.3267 96.595 12.06C96.9017 11.78 97.175 11.4 97.415 10.92L97.815 11.08C97.655 11.5334 97.4083 11.98 97.075 12.42C96.7417 12.86 96.315 13.22 95.795 13.5C95.275 13.7667 94.6683 13.9 93.975 13.9C93.0417 13.9 92.2283 13.6934 91.535 13.28C90.8417 12.8534 90.3083 12.2467 89.935 11.46C89.5617 10.6734 89.375 9.74002 89.375 8.66002C89.375 7.47335 89.5683 6.46002 89.955 5.62002C90.3417 4.78002 90.8817 4.14002 91.575 3.70002C92.2817 3.24669 93.095 3.02002 94.015 3.02002Z" fill="black" fill-opacity="0.7"/>
<path d="M78.0036 3.02002C78.5103 3.02002 78.9369 3.09335 79.2836 3.24002C79.6303 3.37335 79.9103 3.56002 80.1236 3.80002C80.3636 4.05335 80.5303 4.39335 80.6236 4.82002C80.7169 5.23335 80.7636 5.76002 80.7636 6.40002V11.76C80.7636 12.32 80.8703 12.7 81.0836 12.9C81.2969 13.1 81.6569 13.2 82.1636 13.2V13.62C81.9369 13.6067 81.5836 13.5934 81.1036 13.58C80.6369 13.5534 80.1769 13.54 79.7236 13.54C79.2703 13.54 78.8236 13.5534 78.3836 13.58C77.9569 13.5934 77.6303 13.6067 77.4036 13.62V13.2C77.8436 13.2 78.1503 13.1 78.3236 12.9C78.5103 12.7 78.6036 12.32 78.6036 11.76V5.84002C78.6036 5.45335 78.5769 5.10669 78.5236 4.80002C78.4703 4.48002 78.3436 4.22669 78.1436 4.04002C77.9569 3.84002 77.6569 3.74002 77.2436 3.74002C76.7769 3.74002 76.3569 3.88002 75.9836 4.16002C75.6236 4.44002 75.3303 4.82669 75.1036 5.32002C74.8903 5.80002 74.7836 6.34002 74.7836 6.94002V11.76C74.7836 12.32 74.8769 12.7 75.0636 12.9C75.2503 13.1 75.5569 13.2 75.9836 13.2V13.62C75.7703 13.6067 75.4503 13.5934 75.0236 13.58C74.5969 13.5534 74.1569 13.54 73.7036 13.54C73.2503 13.54 72.7769 13.5534 72.2836 13.58C71.7903 13.5934 71.4236 13.6067 71.1836 13.62V13.2C71.7036 13.2 72.0703 13.1 72.2836 12.9C72.5103 12.7 72.6236 12.32 72.6236 11.76V5.48002C72.6236 4.88002 72.5236 4.44002 72.3236 4.16002C72.1236 3.86669 71.7436 3.72002 71.1836 3.72002V3.30002C71.6103 3.34002 72.0236 3.36002 72.4236 3.36002C72.8769 3.36002 73.2969 3.34002 73.6836 3.30002C74.0836 3.24669 74.4503 3.17335 74.7836 3.08002V5.26002C75.1303 4.46002 75.5903 3.88669 76.1636 3.54002C76.7503 3.19335 77.3636 3.02002 78.0036 3.02002ZM84.0236 3.02002C84.5303 3.02002 84.9569 3.09335 85.3036 3.24002C85.6503 3.37335 85.9303 3.56002 86.1436 3.80002C86.3836 4.05335 86.5503 4.39335 86.6436 4.82002C86.7369 5.23335 86.7836 5.76002 86.7836 6.40002V11.76C86.7836 12.32 86.8903 12.7 87.1036 12.9C87.3303 13.1 87.7036 13.2 88.2236 13.2V13.62C87.9969 13.6067 87.6436 13.5934 87.1636 13.58C86.6836 13.5534 86.2103 13.54 85.7436 13.54C85.2903 13.54 84.8436 13.5534 84.4036 13.58C83.9769 13.5934 83.6503 13.6067 83.4236 13.62V13.2C83.8636 13.2 84.1703 13.1 84.3436 12.9C84.5303 12.7 84.6236 12.32 84.6236 11.76V5.84002C84.6236 5.45335 84.5969 5.10669 84.5436 4.80002C84.4903 4.48002 84.3636 4.22669 84.1636 4.04002C83.9636 3.84002 83.6503 3.74002 83.2236 3.74002C82.7569 3.74002 82.3369 3.88669 81.9636 4.18002C81.6036 4.46002 81.3103 4.84669 81.0836 5.34002C80.8703 5.82002 80.7636 6.36002 80.7636 6.96002L80.6836 5.30002C81.0436 4.42002 81.5236 3.82002 82.1236 3.50002C82.7369 3.18002 83.3703 3.02002 84.0236 3.02002Z" fill="black" fill-opacity="0.7"/>
<path d="M63.0234 0V3.32H65.7834V3.72H63.0234V11.58C63.0234 12.1267 63.1234 12.5133 63.3234 12.74C63.5234 12.9667 63.8101 13.08 64.1834 13.08C64.5301 13.08 64.8368 12.94 65.1034 12.66C65.3834 12.38 65.6234 11.9067 65.8234 11.24L66.2034 11.38C66.0434 12.0867 65.7568 12.6867 65.3434 13.18C64.9434 13.66 64.3501 13.9 63.5634 13.9C63.1101 13.9 62.7301 13.84 62.4234 13.72C62.1168 13.6133 61.8501 13.4533 61.6234 13.24C61.3301 12.9333 61.1301 12.5667 61.0234 12.14C60.9168 11.7133 60.8634 11.1467 60.8634 10.44V3.72H59.0234V3.32H60.8634V0.400001C61.2768 0.386667 61.6634 0.353334 62.0234 0.300001C62.3834 0.233335 62.7168 0.133334 63.0234 0Z" fill="black" fill-opacity="0.7"/>
<path d="M54.8186 3.02002C55.2719 3.02002 55.7053 3.08002 56.1186 3.20002C56.5319 3.30669 56.8919 3.46002 57.1986 3.66002C57.5186 3.86002 57.7586 4.10002 57.9186 4.38002C58.0919 4.66002 58.1786 4.96669 58.1786 5.30002C58.1786 5.70002 58.0653 6.01335 57.8386 6.24002C57.6119 6.46669 57.3186 6.58002 56.9586 6.58002C56.5986 6.58002 56.2986 6.48002 56.0586 6.28002C55.8186 6.08002 55.6986 5.79335 55.6986 5.42002C55.6986 5.07335 55.7986 4.79335 55.9986 4.58002C56.1986 4.35335 56.4319 4.20669 56.6986 4.14002C56.5786 3.94002 56.3653 3.77335 56.0586 3.64002C55.7653 3.49335 55.4453 3.42002 55.0986 3.42002C54.7386 3.42002 54.3919 3.51335 54.0586 3.70002C53.7386 3.88669 53.4519 4.17335 53.1986 4.56002C52.9453 4.94669 52.7386 5.44669 52.5786 6.06002C52.4319 6.67335 52.3586 7.41335 52.3586 8.28002C52.3586 9.40002 52.4853 10.2934 52.7386 10.96C53.0053 11.6134 53.3519 12.08 53.7786 12.36C54.2053 12.64 54.6653 12.78 55.1586 12.78C55.4786 12.78 55.8053 12.72 56.1386 12.6C56.4853 12.48 56.8119 12.28 57.1186 12C57.4386 11.72 57.7186 11.34 57.9586 10.86L58.3386 11C58.1919 11.44 57.9586 11.8867 57.6386 12.34C57.3319 12.7934 56.9253 13.1667 56.4186 13.46C55.9119 13.7534 55.2919 13.9 54.5586 13.9C53.7186 13.9 52.9586 13.6934 52.2786 13.28C51.5986 12.8667 51.0586 12.2667 50.6586 11.48C50.2586 10.68 50.0586 9.70669 50.0586 8.56002C50.0586 7.44002 50.2586 6.46669 50.6586 5.64002C51.0719 4.80002 51.6386 4.15335 52.3586 3.70002C53.0786 3.24669 53.8986 3.02002 54.8186 3.02002Z" fill="black" fill-opacity="0.7"/>
<path d="M42.4603 13.76C41.9003 13.76 41.4203 13.6534 41.0203 13.44C40.6203 13.2267 40.3203 12.9334 40.1203 12.56C39.9203 12.1867 39.8203 11.76 39.8203 11.28C39.8203 10.6934 39.9536 10.22 40.2203 9.86002C40.487 9.48669 40.827 9.18669 41.2403 8.96002C41.667 8.73335 42.1136 8.54669 42.5803 8.40002C43.0603 8.24002 43.507 8.09335 43.9203 7.96002C44.347 7.81335 44.6936 7.64669 44.9603 7.46002C45.2403 7.27335 45.3803 7.02669 45.3803 6.72002V5.36002C45.3803 4.88002 45.3003 4.50002 45.1403 4.22002C44.9936 3.92669 44.787 3.72002 44.5203 3.60002C44.267 3.48002 43.9603 3.42002 43.6003 3.42002C43.2936 3.42002 42.967 3.46669 42.6203 3.56002C42.2736 3.64002 42.0003 3.80669 41.8003 4.06002C42.0936 4.14002 42.3336 4.30002 42.5203 4.54002C42.7203 4.76669 42.8203 5.05335 42.8203 5.40002C42.8203 5.77335 42.6936 6.06669 42.4403 6.28002C42.2003 6.49335 41.8936 6.60002 41.5203 6.60002C41.107 6.60002 40.8003 6.47335 40.6003 6.22002C40.4003 5.95335 40.3003 5.64669 40.3003 5.30002C40.3003 4.94002 40.387 4.64669 40.5603 4.42002C40.747 4.19335 40.987 3.98002 41.2803 3.78002C41.6003 3.56669 42.007 3.38669 42.5003 3.24002C43.007 3.09335 43.567 3.02002 44.1803 3.02002C44.7536 3.02002 45.247 3.08669 45.6603 3.22002C46.087 3.34002 46.4403 3.54002 46.7203 3.82002C47.0536 4.12669 47.2736 4.51335 47.3803 4.98002C47.487 5.43335 47.5403 5.98669 47.5403 6.64002V12.16C47.5403 12.4934 47.5803 12.7334 47.6603 12.88C47.7536 13.0134 47.9003 13.08 48.1003 13.08C48.2336 13.08 48.3603 13.0467 48.4803 12.98C48.6136 12.9134 48.767 12.8134 48.9403 12.68L49.1403 13.02C48.8603 13.2467 48.5736 13.4267 48.2803 13.56C48.0003 13.6934 47.6403 13.76 47.2003 13.76C46.7736 13.76 46.427 13.6934 46.1603 13.56C45.8936 13.4267 45.6936 13.2334 45.5603 12.98C45.4403 12.7267 45.3803 12.4134 45.3803 12.04C45.0336 12.6 44.6203 13.0267 44.1403 13.32C43.6603 13.6134 43.1003 13.76 42.4603 13.76ZM43.4203 12.8C43.7936 12.8 44.1403 12.6934 44.4603 12.48C44.7936 12.2667 45.1003 11.9467 45.3803 11.52V7.54002C45.2336 7.75335 45.0203 7.94002 44.7403 8.10002C44.4603 8.24669 44.1603 8.40002 43.8403 8.56002C43.5203 8.72002 43.2136 8.90669 42.9203 9.12002C42.6403 9.32002 42.407 9.58002 42.2203 9.90002C42.0336 10.22 41.9403 10.6267 41.9403 11.12C41.9403 11.64 42.0736 12.0534 42.3403 12.36C42.607 12.6534 42.967 12.8 43.4203 12.8Z" fill="black" fill-opacity="0.7"/>
<path d="M36.0898 0V3.32H38.8498V3.72H36.0898V11.58C36.0898 12.1267 36.1898 12.5133 36.3898 12.74C36.5898 12.9667 36.8765 13.08 37.2498 13.08C37.5965 13.08 37.9032 12.94 38.1698 12.66C38.4498 12.38 38.6898 11.9067 38.8898 11.24L39.2698 11.38C39.1098 12.0867 38.8232 12.6867 38.4098 13.18C38.0098 13.66 37.4165 13.9 36.6298 13.9C36.1765 13.9 35.7965 13.84 35.4898 13.72C35.1832 13.6133 34.9165 13.4533 34.6898 13.24C34.3965 12.9333 34.1965 12.5667 34.0898 12.14C33.9832 11.7133 33.9298 11.1467 33.9298 10.44V3.72H32.0898V3.32H33.9298V0.400001C34.3432 0.386667 34.7298 0.353334 35.0898 0.300001C35.4498 0.233335 35.7832 0.133334 36.0898 0Z" fill="black" fill-opacity="0.7"/>
<path d="M27.4991 3.02002C28.0324 3.02002 28.4657 3.09335 28.7991 3.24002C29.1457 3.37335 29.4324 3.56002 29.6591 3.80002C29.8991 4.05335 30.0657 4.38002 30.1591 4.78002C30.2657 5.18002 30.3191 5.72002 30.3191 6.40002V11.76C30.3191 12.32 30.4257 12.7 30.6391 12.9C30.8657 13.1 31.2391 13.2 31.7591 13.2V13.62C31.5324 13.6067 31.1791 13.5934 30.6991 13.58C30.2191 13.5534 29.7457 13.54 29.2791 13.54C28.8257 13.54 28.3724 13.5534 27.9191 13.58C27.4791 13.5934 27.1457 13.6067 26.9191 13.62V13.2C27.3724 13.2 27.6924 13.1 27.8791 12.9C28.0657 12.7 28.1591 12.32 28.1591 11.76V5.84002C28.1591 5.45335 28.1257 5.10669 28.0591 4.80002C27.9924 4.48002 27.8524 4.22669 27.6391 4.04002C27.4257 3.84002 27.1057 3.74002 26.6791 3.74002C26.1857 3.74002 25.7457 3.88002 25.3591 4.16002C24.9857 4.44002 24.6857 4.82669 24.4591 5.32002C24.2457 5.80002 24.1391 6.34002 24.1391 6.94002V11.76C24.1391 12.32 24.2324 12.7 24.4191 12.9C24.6191 13.1 24.9391 13.2 25.3791 13.2V13.62C25.1657 13.6067 24.8391 13.5934 24.3991 13.58C23.9724 13.5534 23.5257 13.54 23.0591 13.54C22.6057 13.54 22.1324 13.5534 21.6391 13.58C21.1457 13.5934 20.7791 13.6067 20.5391 13.62V13.2C21.0591 13.2 21.4257 13.1 21.6391 12.9C21.8657 12.7 21.9791 12.32 21.9791 11.76V5.48002C21.9791 4.88002 21.8791 4.44002 21.6791 4.16002C21.4791 3.86669 21.0991 3.72002 20.5391 3.72002V3.30002C20.9657 3.34002 21.3791 3.36002 21.7791 3.36002C22.2324 3.36002 22.6524 3.34002 23.0391 3.30002C23.4391 3.24669 23.8057 3.17335 24.1391 3.08002V5.26002C24.4857 4.43335 24.9591 3.85335 25.5591 3.52002C26.1724 3.18669 26.8191 3.02002 27.4991 3.02002Z" fill="black" fill-opacity="0.7"/>
<path d="M14.4647 3.02002C15.358 3.02002 16.1514 3.20669 16.8447 3.58002C17.538 3.95335 18.0914 4.54002 18.5047 5.34002C18.918 6.14002 19.1247 7.18669 19.1247 8.48002C19.1247 9.77335 18.918 10.82 18.5047 11.62C18.0914 12.4067 17.538 12.9867 16.8447 13.36C16.1514 13.72 15.358 13.9 14.4647 13.9C13.5847 13.9 12.7914 13.72 12.0847 13.36C11.378 12.9867 10.818 12.4067 10.4047 11.62C10.0047 10.82 9.80469 9.77335 9.80469 8.48002C9.80469 7.18669 10.0047 6.14002 10.4047 5.34002C10.818 4.54002 11.378 3.95335 12.0847 3.58002C12.7914 3.20669 13.5847 3.02002 14.4647 3.02002ZM14.4647 3.42002C13.7714 3.42002 13.2047 3.82002 12.7647 4.62002C12.3247 5.40669 12.1047 6.69335 12.1047 8.48002C12.1047 10.2667 12.3247 11.5534 12.7647 12.34C13.2047 13.1134 13.7714 13.5 14.4647 13.5C15.1447 13.5 15.7047 13.1134 16.1447 12.34C16.598 11.5534 16.8247 10.2667 16.8247 8.48002C16.8247 6.69335 16.598 5.40669 16.1447 4.62002C15.7047 3.82002 15.1447 3.42002 14.4647 3.42002Z" fill="black" fill-opacity="0.7"/>
<path d="M4.76 3.02002C5.21333 3.02002 5.64667 3.08002 6.06 3.20002C6.47333 3.30669 6.83333 3.46002 7.14 3.66002C7.46 3.86002 7.7 4.10002 7.86 4.38002C8.03333 4.66002 8.12 4.96669 8.12 5.30002C8.12 5.70002 8.00667 6.01335 7.78 6.24002C7.55333 6.46669 7.26 6.58002 6.9 6.58002C6.54 6.58002 6.24 6.48002 6 6.28002C5.76 6.08002 5.64 5.79335 5.64 5.42002C5.64 5.07335 5.74 4.79335 5.94 4.58002C6.14 4.35335 6.37333 4.20669 6.64 4.14002C6.52 3.94002 6.30667 3.77335 6 3.64002C5.70667 3.49335 5.38667 3.42002 5.04 3.42002C4.68 3.42002 4.33333 3.51335 4 3.70002C3.68 3.88669 3.39333 4.17335 3.14 4.56002C2.88667 4.94669 2.68 5.44669 2.52 6.06002C2.37333 6.67335 2.3 7.41335 2.3 8.28002C2.3 9.40002 2.42667 10.2934 2.68 10.96C2.94667 11.6134 3.29333 12.08 3.72 12.36C4.14667 12.64 4.60667 12.78 5.1 12.78C5.42 12.78 5.74667 12.72 6.08 12.6C6.42667 12.48 6.75333 12.28 7.06 12C7.38 11.72 7.66 11.34 7.9 10.86L8.28 11C8.13333 11.44 7.9 11.8867 7.58 12.34C7.27333 12.7934 6.86667 13.1667 6.36 13.46C5.85333 13.7534 5.23333 13.9 4.5 13.9C3.66 13.9 2.9 13.6934 2.22 13.28C1.54 12.8667 1 12.2667 0.6 11.48C0.2 10.68 0 9.70669 0 8.56002C0 7.44002 0.2 6.46669 0.6 5.64002C1.01333 4.80002 1.58 4.15335 2.3 3.70002C3.02 3.24669 3.84 3.02002 4.76 3.02002Z" fill="black" fill-opacity="0.7"/>
</svg>
