<svg width="100" height="20" viewBox="0 0 100 20" fill="none" xmlns="http://www.w3.org/2000/svg">
<path d="M98.212 12.8999C98.612 12.8999 98.9453 13.0332 99.212 13.2999C99.492 13.5532 99.632 13.8799 99.632 14.2799C99.632 14.6666 99.492 14.9932 99.212 15.2599C98.9453 15.5132 98.612 15.6399 98.212 15.6399C97.812 15.6399 97.472 15.5132 97.192 15.2599C96.9253 14.9932 96.792 14.6666 96.792 14.2799C96.792 13.8799 96.9253 13.5532 97.192 13.2999C97.472 13.0332 97.812 12.8999 98.212 12.8999Z" fill="black" fill-opacity="0.7"/>
<path d="M92.6211 1.73975V5.05975H95.3811V5.45975H92.6211V13.3197C92.6211 13.8664 92.7211 14.2531 92.9211 14.4797C93.1211 14.7064 93.4078 14.8197 93.7811 14.8197C94.1278 14.8197 94.4344 14.6797 94.7011 14.3997C94.9811 14.1197 95.2211 13.6464 95.4211 12.9797L95.8011 13.1197C95.6411 13.8264 95.3544 14.4264 94.9411 14.9197C94.5411 15.3997 93.9478 15.6397 93.1611 15.6397C92.7078 15.6397 92.3278 15.5797 92.0211 15.4597C91.7144 15.3531 91.4478 15.1931 91.2211 14.9797C90.9278 14.6731 90.7278 14.3064 90.6211 13.8797C90.5144 13.4531 90.4611 12.8864 90.4611 12.1797V5.45975H88.6211V5.05975H90.4611V2.13975C90.8744 2.12641 91.2611 2.09308 91.6211 2.03975C91.9811 1.97308 92.3144 1.87308 92.6211 1.73975Z" fill="black" fill-opacity="0.7"/>
<path d="M84.4163 4.75977C84.8696 4.75977 85.3029 4.81977 85.7162 4.93977C86.1296 5.04643 86.4896 5.19977 86.7962 5.39977C87.1162 5.59977 87.3563 5.83977 87.5163 6.11977C87.6896 6.39977 87.7763 6.70643 87.7763 7.03977C87.7763 7.43977 87.6629 7.7531 87.4362 7.97977C87.2096 8.20643 86.9163 8.31977 86.5563 8.31977C86.1963 8.31977 85.8963 8.21977 85.6562 8.01977C85.4162 7.81977 85.2962 7.5331 85.2962 7.15977C85.2962 6.8131 85.3963 6.5331 85.5963 6.31977C85.7963 6.0931 86.0296 5.94643 86.2962 5.87977C86.1762 5.67977 85.9629 5.5131 85.6562 5.37977C85.3629 5.2331 85.0429 5.15977 84.6963 5.15977C84.3363 5.15977 83.9896 5.2531 83.6562 5.43977C83.3362 5.62643 83.0496 5.9131 82.7962 6.29977C82.5429 6.68643 82.3362 7.18643 82.1762 7.79977C82.0296 8.4131 81.9563 9.1531 81.9563 10.0198C81.9563 11.1398 82.0829 12.0331 82.3363 12.6998C82.6029 13.3531 82.9496 13.8198 83.3763 14.0998C83.8029 14.3798 84.2629 14.5198 84.7562 14.5198C85.0762 14.5198 85.4029 14.4598 85.7363 14.3398C86.0829 14.2198 86.4096 14.0198 86.7162 13.7398C87.0362 13.4598 87.3163 13.0798 87.5563 12.5998L87.9362 12.7398C87.7896 13.1798 87.5563 13.6264 87.2363 14.0798C86.9296 14.5331 86.5229 14.9064 86.0163 15.1998C85.5096 15.4931 84.8896 15.6398 84.1562 15.6398C83.3163 15.6398 82.5563 15.4331 81.8763 15.0198C81.1963 14.6064 80.6562 14.0064 80.2562 13.2198C79.8562 12.4198 79.6562 11.4464 79.6562 10.2998C79.6562 9.17976 79.8562 8.20643 80.2562 7.37977C80.6696 6.53977 81.2363 5.8931 81.9563 5.43977C82.6763 4.98643 83.4963 4.75977 84.4163 4.75977Z" fill="black" fill-opacity="0.7"/>
<path d="M74.1986 4.75977C75.3719 4.75977 76.2919 5.1131 76.9586 5.81977C77.6253 6.52643 77.9586 7.64643 77.9586 9.17977H71.0586L71.0186 8.79977H75.8386C75.8519 8.14643 75.7986 7.54643 75.6786 6.99977C75.5586 6.43977 75.3719 5.9931 75.1186 5.65977C74.8653 5.32643 74.5319 5.15977 74.1186 5.15977C73.5453 5.15977 73.0453 5.46643 72.6186 6.07977C72.2053 6.67977 71.9519 7.64643 71.8586 8.97976L71.9186 9.07977C71.9053 9.26643 71.8919 9.4731 71.8786 9.69977C71.8653 9.9131 71.8586 10.1264 71.8586 10.3398C71.8586 11.2598 71.9986 12.0331 72.2786 12.6598C72.5586 13.2864 72.9253 13.7598 73.3786 14.0798C73.8319 14.3864 74.2919 14.5398 74.7586 14.5398C75.1186 14.5398 75.4653 14.4864 75.7986 14.3798C76.1453 14.2598 76.4719 14.0664 76.7786 13.7998C77.0853 13.5198 77.3586 13.1398 77.5986 12.6598L77.9986 12.8198C77.8386 13.2731 77.5919 13.7198 77.2586 14.1598C76.9253 14.5998 76.4986 14.9598 75.9786 15.2398C75.4586 15.5064 74.8519 15.6398 74.1586 15.6398C73.2253 15.6398 72.4119 15.4331 71.7186 15.0198C71.0253 14.5931 70.4919 13.9864 70.1186 13.1998C69.7453 12.4131 69.5586 11.4798 69.5586 10.3998C69.5586 9.2131 69.7519 8.19977 70.1386 7.35977C70.5253 6.51977 71.0653 5.87977 71.7586 5.43977C72.4653 4.98643 73.2786 4.75977 74.1986 4.75977Z" fill="black" fill-opacity="0.7"/>
<path d="M62.6514 19.12V18.8C63.4247 18.7733 64.0114 18.4467 64.4114 17.82C64.8114 17.2067 65.0114 16.34 65.0114 15.22V7.22C65.0114 6.62 64.9114 6.18 64.7114 5.9C64.5114 5.60667 64.1314 5.46 63.5714 5.46V5.04C63.998 5.08 64.4114 5.1 64.8114 5.1C65.2514 5.1 65.6714 5.08 66.0714 5.04C66.4714 4.98667 66.838 4.91333 67.1714 4.82V13.2C67.1714 13.8933 67.1247 14.5333 67.0314 15.12C66.938 15.7067 66.7847 16.2333 66.5714 16.7C66.358 17.1667 66.078 17.58 65.7314 17.94C65.398 18.2867 64.9714 18.5667 64.4514 18.78C63.9447 19.0067 63.3447 19.12 62.6514 19.12ZM65.9114 0C66.3247 0 66.6714 0.133333 66.9514 0.399999C67.2314 0.653332 67.3714 0.973333 67.3714 1.36C67.3714 1.74667 67.2314 2.07333 66.9514 2.34C66.6714 2.59333 66.3247 2.72 65.9114 2.72C65.498 2.72 65.1514 2.59333 64.8714 2.34C64.5914 2.07333 64.4514 1.74667 64.4514 1.36C64.4514 0.973333 64.5914 0.653332 64.8714 0.399999C65.1514 0.133333 65.498 0 65.9114 0Z" fill="black" fill-opacity="0.7"/>
<path d="M57.617 4.75977C58.5104 4.75977 59.3037 4.94643 59.997 5.31977C60.6904 5.6931 61.2437 6.27977 61.657 7.07977C62.0704 7.87977 62.277 8.92643 62.277 10.2198C62.277 11.5131 62.0704 12.5598 61.657 13.3598C61.2437 14.1464 60.6904 14.7264 59.997 15.0998C59.3037 15.4598 58.5104 15.6398 57.617 15.6398C56.737 15.6398 55.9437 15.4598 55.237 15.0998C54.5304 14.7264 53.9704 14.1464 53.557 13.3598C53.157 12.5598 52.957 11.5131 52.957 10.2198C52.957 8.92643 53.157 7.87977 53.557 7.07977C53.9704 6.27977 54.5304 5.6931 55.237 5.31977C55.9437 4.94643 56.737 4.75977 57.617 4.75977ZM57.617 5.15977C56.9237 5.15977 56.357 5.55977 55.917 6.35977C55.477 7.14643 55.257 8.4331 55.257 10.2198C55.257 12.0064 55.477 13.2931 55.917 14.0798C56.357 14.8531 56.9237 15.2398 57.617 15.2398C58.297 15.2398 58.857 14.8531 59.297 14.0798C59.7504 13.2931 59.977 12.0064 59.977 10.2198C59.977 8.4331 59.7504 7.14643 59.297 6.35977C58.857 5.55977 58.297 5.15977 57.617 5.15977Z" fill="black" fill-opacity="0.7"/>
<path d="M50.3658 4.75977C50.7524 4.75977 51.0791 4.83977 51.3458 4.99977C51.6258 5.15976 51.8324 5.36643 51.9658 5.61977C52.1124 5.85977 52.1858 6.1331 52.1858 6.43977C52.1858 6.82643 52.0658 7.15977 51.8258 7.43977C51.5991 7.70643 51.2924 7.83977 50.9058 7.83977C50.5724 7.83977 50.2858 7.73977 50.0458 7.53977C49.8191 7.33977 49.7058 7.06643 49.7058 6.71977C49.7058 6.42643 49.7791 6.17977 49.9258 5.97977C50.0858 5.76643 50.2658 5.59977 50.4658 5.47977C50.3324 5.3731 50.1724 5.32643 49.9858 5.33977C49.6258 5.3531 49.2924 5.4731 48.9858 5.69977C48.6791 5.9131 48.4191 6.1931 48.2058 6.53977C47.9924 6.8731 47.8258 7.2331 47.7058 7.61977C47.5858 8.00643 47.5258 8.36643 47.5258 8.69977V13.2998C47.5258 13.9531 47.7058 14.3931 48.0658 14.6198C48.4258 14.8331 48.9258 14.9398 49.5658 14.9398V15.3598C49.2591 15.3464 48.8191 15.3331 48.2458 15.3198C47.6858 15.2931 47.0924 15.2798 46.4658 15.2798C45.9858 15.2798 45.5058 15.2931 45.0258 15.3198C44.5458 15.3331 44.1791 15.3464 43.9258 15.3598V14.9398C44.4458 14.9398 44.8124 14.8398 45.0258 14.6398C45.2524 14.4398 45.3658 14.0598 45.3658 13.4998V7.21977C45.3658 6.61977 45.2658 6.17977 45.0658 5.89977C44.8658 5.60643 44.4858 5.45977 43.9258 5.45977V5.03977C44.3524 5.07977 44.7658 5.09977 45.1658 5.09977C45.6191 5.09977 46.0391 5.07977 46.4258 5.03977C46.8258 4.98643 47.1924 4.9131 47.5258 4.81977V7.11977C47.6858 6.7331 47.8991 6.35977 48.1658 5.99977C48.4324 5.63977 48.7524 5.34643 49.1258 5.11977C49.4991 4.87977 49.9124 4.75977 50.3658 4.75977Z" fill="black" fill-opacity="0.7"/>
<path d="M35.6674 4.81977V17.0798C35.6674 17.6664 35.8341 18.0598 36.1674 18.2598C36.5007 18.4598 36.9607 18.5598 37.5474 18.5598V18.9798C37.2407 18.9664 36.8141 18.9464 36.2674 18.9198C35.7207 18.9064 35.1341 18.8998 34.5074 18.8998C34.0674 18.8998 33.6341 18.9064 33.2074 18.9198C32.7807 18.9464 32.4541 18.9664 32.2274 18.9798V18.5598C32.6941 18.5598 33.0207 18.4664 33.2074 18.2798C33.4074 18.1064 33.5074 17.7731 33.5074 17.2798V7.21977C33.5074 6.61977 33.4074 6.17977 33.2074 5.89977C33.0074 5.60643 32.6274 5.45977 32.0674 5.45977V5.03977C32.494 5.07977 32.9074 5.09977 33.3074 5.09977C33.7474 5.09977 34.1674 5.07977 34.5674 5.03977C34.9674 4.98643 35.3341 4.9131 35.6674 4.81977ZM38.8474 4.75977C39.5407 4.75977 40.1607 4.9531 40.7074 5.33977C41.2674 5.7131 41.7074 6.26643 42.0274 6.99977C42.3474 7.7331 42.5074 8.64643 42.5074 9.73977C42.5074 10.5398 42.4141 11.2998 42.2274 12.0198C42.0407 12.7264 41.7541 13.3531 41.3674 13.8998C40.9941 14.4331 40.5207 14.8598 39.9474 15.1798C39.3741 15.4864 38.6941 15.6398 37.9074 15.6398C37.3207 15.6398 36.8007 15.5131 36.3474 15.2598C35.9074 15.0064 35.594 14.6864 35.4074 14.2998L35.6074 14.0198C35.7807 14.3531 36.0207 14.6264 36.3274 14.8398C36.6474 15.0531 37.0407 15.1598 37.5074 15.1598C38.2007 15.1598 38.7407 14.9398 39.1274 14.4998C39.5274 14.0464 39.8074 13.4398 39.9674 12.6798C40.1274 11.9064 40.2074 11.0331 40.2074 10.0598C40.2074 8.96643 40.1274 8.08643 39.9674 7.41977C39.8074 6.73977 39.5674 6.24643 39.2474 5.93977C38.9274 5.61977 38.5407 5.45977 38.0874 5.45977C37.4874 5.45977 36.9407 5.69977 36.4474 6.17977C35.9674 6.65977 35.6741 7.37977 35.5674 8.33977L35.3674 7.91977C35.5407 6.91977 35.9407 6.14643 36.5674 5.59977C37.2074 5.03977 37.9674 4.75977 38.8474 4.75977Z" fill="black" fill-opacity="0.7"/>
<path d="M27.1361 5.04004V5.44004C26.8828 5.48004 26.6494 5.61337 26.4361 5.84004C26.2228 6.05337 26.0161 6.42671 25.8161 6.96004L22.6961 15.32L22.2161 15.8L18.3161 6.58004C18.0628 6.06004 17.8161 5.74671 17.5761 5.64004C17.3494 5.52004 17.1561 5.46004 16.9961 5.46004V5.04004C17.3294 5.08004 17.6828 5.11337 18.0561 5.14004C18.4294 5.15337 18.8161 5.16004 19.2161 5.16004C19.6694 5.16004 20.1228 5.14671 20.5761 5.12004C21.0428 5.09337 21.4761 5.06671 21.8761 5.04004V5.46004C21.5561 5.46004 21.2694 5.48671 21.0161 5.54004C20.7761 5.58004 20.6161 5.70671 20.5361 5.92004C20.4694 6.12004 20.5361 6.46671 20.7361 6.96004L23.2161 13.06L23.0761 13.12L25.0961 7.76004C25.2961 7.22671 25.3761 6.80004 25.3361 6.48004C25.2961 6.14671 25.1561 5.90004 24.9161 5.74004C24.6761 5.56671 24.3228 5.46671 23.8561 5.44004V5.04004C24.0828 5.05337 24.2894 5.06671 24.4761 5.08004C24.6761 5.08004 24.8694 5.08671 25.0561 5.10004C25.2428 5.10004 25.4294 5.10004 25.6161 5.10004C25.9094 5.10004 26.1828 5.09337 26.4361 5.08004C26.7028 5.06671 26.9361 5.05337 27.1361 5.04004ZM22.6961 15.32L21.9761 17.2C21.8428 17.5334 21.7028 17.8134 21.5561 18.04C21.4228 18.2667 21.2761 18.4534 21.1161 18.6C20.9161 18.7867 20.6694 18.92 20.3761 19C20.0828 19.08 19.7894 19.12 19.4961 19.12C19.2161 19.12 18.9494 19.0667 18.6961 18.96C18.4561 18.8667 18.2561 18.72 18.0961 18.52C17.9361 18.32 17.8561 18.0734 17.8561 17.78C17.8561 17.4334 17.9694 17.1534 18.1961 16.94C18.4228 16.7267 18.7228 16.62 19.0961 16.62C19.4294 16.62 19.7094 16.7067 19.9361 16.88C20.1628 17.0667 20.2761 17.3334 20.2761 17.68C20.2761 17.92 20.2094 18.1267 20.0761 18.3C19.9561 18.4734 19.7961 18.6067 19.5961 18.7C19.6361 18.7134 19.6761 18.72 19.7161 18.72C19.7561 18.72 19.7894 18.72 19.8161 18.72C20.1894 18.72 20.5228 18.5934 20.8161 18.34C21.1094 18.1 21.3561 17.7067 21.5561 17.16L22.2761 15.24L22.6961 15.32Z" fill="black" fill-opacity="0.7"/>
<path d="M6.82 4.75977C7.32667 4.75977 7.75333 4.8331 8.1 4.97976C8.44667 5.1131 8.72667 5.29977 8.94 5.53977C9.18 5.7931 9.34667 6.1331 9.44 6.55977C9.53333 6.9731 9.58 7.49977 9.58 8.13977V13.4998C9.58 14.0598 9.68667 14.4398 9.9 14.6398C10.1133 14.8398 10.4733 14.9398 10.98 14.9398V15.3598C10.7533 15.3464 10.4 15.3331 9.92 15.3198C9.45333 15.2931 8.99333 15.2798 8.54 15.2798C8.08667 15.2798 7.64 15.2931 7.2 15.3198C6.77333 15.3331 6.44667 15.3464 6.22 15.3598V14.9398C6.66 14.9398 6.96667 14.8398 7.14 14.6398C7.32667 14.4398 7.42 14.0598 7.42 13.4998V7.57977C7.42 7.1931 7.39333 6.84643 7.34 6.53977C7.28667 6.21977 7.16 5.96643 6.96 5.77977C6.77333 5.57977 6.47333 5.47977 6.06 5.47977C5.59333 5.47977 5.17333 5.61977 4.8 5.89977C4.44 6.17977 4.14667 6.56643 3.92 7.05977C3.70667 7.53977 3.6 8.07977 3.6 8.67977V13.4998C3.6 14.0598 3.69333 14.4398 3.88 14.6398C4.06667 14.8398 4.37333 14.9398 4.8 14.9398V15.3598C4.58667 15.3464 4.26667 15.3331 3.84 15.3198C3.41333 15.2931 2.97333 15.2798 2.52 15.2798C2.06667 15.2798 1.59333 15.2931 1.1 15.3198C0.606667 15.3331 0.24 15.3464 0 15.3598V14.9398C0.52 14.9398 0.886667 14.8398 1.1 14.6398C1.32667 14.4398 1.44 14.0598 1.44 13.4998V7.21977C1.44 6.61977 1.34 6.17977 1.14 5.89977C0.94 5.60643 0.56 5.45977 0 5.45977V5.03977C0.426667 5.07977 0.84 5.09977 1.24 5.09977C1.69333 5.09977 2.11333 5.07977 2.5 5.03977C2.9 4.98643 3.26667 4.9131 3.6 4.81977V6.99977C3.94667 6.19977 4.40667 5.62643 4.98 5.27977C5.56667 4.9331 6.18 4.75977 6.82 4.75977ZM12.84 4.75977C13.3467 4.75977 13.7733 4.8331 14.12 4.97976C14.4667 5.1131 14.7467 5.29977 14.96 5.53977C15.2 5.7931 15.3667 6.1331 15.46 6.55977C15.5533 6.9731 15.6 7.49977 15.6 8.13977V13.4998C15.6 14.0598 15.7067 14.4398 15.92 14.6398C16.1467 14.8398 16.52 14.9398 17.04 14.9398V15.3598C16.8133 15.3464 16.46 15.3331 15.98 15.3198C15.5 15.2931 15.0267 15.2798 14.56 15.2798C14.1067 15.2798 13.66 15.2931 13.22 15.3198C12.7933 15.3331 12.4667 15.3464 12.24 15.3598V14.9398C12.68 14.9398 12.9867 14.8398 13.16 14.6398C13.3467 14.4398 13.44 14.0598 13.44 13.4998V7.57977C13.44 7.1931 13.4133 6.84643 13.36 6.53977C13.3067 6.21977 13.18 5.96643 12.98 5.77977C12.78 5.57977 12.4667 5.47977 12.04 5.47977C11.5733 5.47977 11.1533 5.62643 10.78 5.91977C10.42 6.19977 10.1267 6.58643 9.9 7.07977C9.68667 7.55977 9.58 8.09977 9.58 8.69977L9.5 7.03977C9.86 6.15977 10.34 5.55977 10.94 5.23977C11.5533 4.91977 12.1867 4.75977 12.84 4.75977Z" fill="black" fill-opacity="0.7"/>
</svg>
