<svg width="88" height="16" viewBox="0 0 88 16" fill="none" xmlns="http://www.w3.org/2000/svg">
<path d="M85.8643 13.2C86.2643 13.2 86.5977 13.3333 86.8643 13.6C87.1443 13.8533 87.2843 14.18 87.2843 14.58C87.2843 14.9666 87.1443 15.2933 86.8643 15.56C86.5977 15.8133 86.2643 15.94 85.8643 15.94C85.4643 15.94 85.1243 15.8133 84.8443 15.56C84.5777 15.2933 84.4443 14.9666 84.4443 14.58C84.4443 14.18 84.5777 13.8533 84.8443 13.6C85.1243 13.3333 85.4643 13.2 85.8643 13.2Z" fill="black" fill-opacity="0.7"/>
<path d="M78.6869 5.05981C79.8602 5.05981 80.7802 5.41315 81.4469 6.11981C82.1135 6.82648 82.4469 7.94648 82.4469 9.47981H75.5469L75.5069 9.09982H80.3269C80.3402 8.44648 80.2869 7.84648 80.1669 7.29981C80.0469 6.73981 79.8602 6.29315 79.6069 5.95981C79.3535 5.62648 79.0202 5.45981 78.6069 5.45981C78.0335 5.45981 77.5335 5.76648 77.1069 6.37981C76.6935 6.97981 76.4402 7.94648 76.3469 9.27981L76.4069 9.37981C76.3935 9.56648 76.3802 9.77315 76.3669 9.99981C76.3535 10.2131 76.3469 10.4265 76.3469 10.6398C76.3469 11.5598 76.4869 12.3331 76.7669 12.9598C77.0469 13.5865 77.4135 14.0598 77.8669 14.3798C78.3202 14.6865 78.7802 14.8398 79.2469 14.8398C79.6069 14.8398 79.9535 14.7865 80.2869 14.6798C80.6335 14.5598 80.9602 14.3665 81.2669 14.0998C81.5735 13.8198 81.8469 13.4398 82.0869 12.9598L82.4869 13.1198C82.3269 13.5731 82.0802 14.0198 81.7469 14.4598C81.4135 14.8998 80.9869 15.2598 80.4669 15.5398C79.9469 15.8065 79.3402 15.9398 78.6469 15.9398C77.7135 15.9398 76.9002 15.7331 76.2069 15.3198C75.5135 14.8931 74.9802 14.2865 74.6069 13.4998C74.2335 12.7131 74.0469 11.7798 74.0469 10.6998C74.0469 9.51315 74.2402 8.49981 74.6269 7.65981C75.0135 6.81981 75.5535 6.17981 76.2469 5.73981C76.9535 5.28648 77.7669 5.05981 78.6869 5.05981Z" fill="black" fill-opacity="0.7"/>
<path d="M62.6755 5.05981C63.1821 5.05981 63.6088 5.13315 63.9555 5.27981C64.3021 5.41315 64.5821 5.59981 64.7955 5.83981C65.0355 6.09315 65.2021 6.43315 65.2955 6.85981C65.3888 7.27315 65.4355 7.79981 65.4355 8.43981V13.7998C65.4355 14.3598 65.5421 14.7398 65.7555 14.9398C65.9688 15.1398 66.3288 15.2398 66.8355 15.2398V15.6598C66.6088 15.6465 66.2555 15.6331 65.7755 15.6198C65.3088 15.5931 64.8488 15.5798 64.3955 15.5798C63.9421 15.5798 63.4955 15.5931 63.0555 15.6198C62.6288 15.6331 62.3021 15.6465 62.0755 15.6598V15.2398C62.5155 15.2398 62.8221 15.1398 62.9955 14.9398C63.1821 14.7398 63.2755 14.3598 63.2755 13.7998V7.87981C63.2755 7.49315 63.2488 7.14648 63.1955 6.83981C63.1421 6.51981 63.0155 6.26648 62.8155 6.07981C62.6288 5.87981 62.3288 5.77981 61.9155 5.77981C61.4488 5.77981 61.0288 5.91981 60.6555 6.19981C60.2955 6.47981 60.0021 6.86648 59.7755 7.35981C59.5621 7.83981 59.4555 8.37981 59.4555 8.97981V13.7998C59.4555 14.3598 59.5488 14.7398 59.7355 14.9398C59.9221 15.1398 60.2288 15.2398 60.6555 15.2398V15.6598C60.4421 15.6465 60.1221 15.6331 59.6955 15.6198C59.2688 15.5931 58.8288 15.5798 58.3755 15.5798C57.9221 15.5798 57.4488 15.5931 56.9555 15.6198C56.4621 15.6331 56.0955 15.6465 55.8555 15.6598V15.2398C56.3755 15.2398 56.7421 15.1398 56.9555 14.9398C57.1821 14.7398 57.2955 14.3598 57.2955 13.7998V7.51981C57.2955 6.91981 57.1955 6.47981 56.9955 6.19981C56.7955 5.90648 56.4155 5.75981 55.8555 5.75981V5.33981C56.2821 5.37981 56.6955 5.39981 57.0955 5.39981C57.5488 5.39981 57.9688 5.37981 58.3555 5.33981C58.7555 5.28648 59.1221 5.21315 59.4555 5.11981V7.29981C59.8021 6.49981 60.2621 5.92648 60.8355 5.57981C61.4221 5.23315 62.0355 5.05981 62.6755 5.05981ZM68.6955 5.05981C69.2021 5.05981 69.6288 5.13315 69.9755 5.27981C70.3221 5.41315 70.6021 5.59981 70.8155 5.83981C71.0555 6.09315 71.2221 6.43315 71.3155 6.85981C71.4088 7.27315 71.4555 7.79981 71.4555 8.43981V13.7998C71.4555 14.3598 71.5621 14.7398 71.7755 14.9398C72.0021 15.1398 72.3755 15.2398 72.8955 15.2398V15.6598C72.6688 15.6465 72.3155 15.6331 71.8355 15.6198C71.3555 15.5931 70.8821 15.5798 70.4155 15.5798C69.9621 15.5798 69.5155 15.5931 69.0755 15.6198C68.6488 15.6331 68.3221 15.6465 68.0955 15.6598V15.2398C68.5355 15.2398 68.8421 15.1398 69.0155 14.9398C69.2021 14.7398 69.2955 14.3598 69.2955 13.7998V7.87981C69.2955 7.49315 69.2688 7.14648 69.2155 6.83981C69.1621 6.51981 69.0355 6.26648 68.8355 6.07981C68.6355 5.87981 68.3221 5.77981 67.8955 5.77981C67.4288 5.77981 67.0088 5.92648 66.6355 6.21981C66.2755 6.49981 65.9821 6.88648 65.7555 7.37981C65.5421 7.85981 65.4355 8.39981 65.4355 8.99981L65.3555 7.33982C65.7155 6.45981 66.1955 5.85981 66.7955 5.53981C67.4088 5.21981 68.0421 5.05981 68.6955 5.05981Z" fill="black" fill-opacity="0.7"/>
<path d="M47.6953 2.03979V5.35979H50.4553V5.7598H47.6953V13.6198C47.6953 14.1665 47.7953 14.5531 47.9953 14.7798C48.1953 15.0065 48.482 15.1198 48.8553 15.1198C49.202 15.1198 49.5086 14.9798 49.7753 14.6998C50.0553 14.4198 50.2953 13.9465 50.4953 13.2798L50.8753 13.4198C50.7153 14.1265 50.4286 14.7265 50.0153 15.2198C49.6153 15.6998 49.022 15.9398 48.2353 15.9398C47.782 15.9398 47.402 15.8798 47.0953 15.7598C46.7886 15.6531 46.522 15.4931 46.2953 15.2798C46.002 14.9731 45.802 14.6065 45.6953 14.1798C45.5886 13.7531 45.5353 13.1865 45.5353 12.4798V5.7598H43.6953V5.35979H45.5353V2.4398C45.9486 2.42646 46.3353 2.39313 46.6953 2.3398C47.0553 2.27313 47.3886 2.17313 47.6953 2.03979Z" fill="black" fill-opacity="0.7"/>
<path d="M41.7977 5.11987V13.4999C41.7977 14.0999 41.8977 14.5465 42.0977 14.8399C42.3111 15.1199 42.6911 15.2599 43.2377 15.2599V15.6799C42.8244 15.6399 42.4111 15.6199 41.9977 15.6199C41.5577 15.6199 41.1377 15.6399 40.7377 15.6799C40.3377 15.7199 39.9711 15.7932 39.6377 15.8999V13.7199C39.3044 14.5199 38.8377 15.0932 38.2377 15.4399C37.6511 15.7732 37.0311 15.9399 36.3777 15.9399C35.8844 15.9399 35.4644 15.8665 35.1177 15.7199C34.7711 15.5865 34.4844 15.4065 34.2577 15.1799C34.0177 14.9132 33.8511 14.5732 33.7577 14.1599C33.6644 13.7332 33.6177 13.1999 33.6177 12.5599V7.51987C33.6177 6.91987 33.5177 6.47987 33.3177 6.19987C33.1177 5.90654 32.7377 5.75987 32.1777 5.75987V5.33987C32.6044 5.37987 33.0177 5.39987 33.4177 5.39987C33.8577 5.39987 34.2777 5.37987 34.6777 5.33987C35.0777 5.28654 35.4444 5.21321 35.7777 5.11987V13.1199C35.7777 13.5065 35.8044 13.8599 35.8577 14.1799C35.9111 14.4999 36.0377 14.7532 36.2377 14.9399C36.4377 15.1265 36.7577 15.2199 37.1977 15.2199C37.6644 15.2199 38.0777 15.0799 38.4377 14.7999C38.8111 14.5199 39.1044 14.1399 39.3177 13.6599C39.5311 13.1799 39.6377 12.6399 39.6377 12.0399V7.51987C39.6377 6.91987 39.5377 6.47987 39.3377 6.19987C39.1377 5.90654 38.7577 5.75987 38.1977 5.75987V5.33987C38.6244 5.37987 39.0377 5.39987 39.4377 5.39987C39.8777 5.39987 40.2977 5.37987 40.6977 5.33987C41.0977 5.28654 41.4644 5.21321 41.7977 5.11987Z" fill="black" fill-opacity="0.7"/>
<path d="M26.3436 5.05981C27.2369 5.05981 28.0303 5.24648 28.7236 5.61981C29.4169 5.99315 29.9703 6.57981 30.3836 7.37981C30.7969 8.17981 31.0036 9.22648 31.0036 10.5198C31.0036 11.8131 30.7969 12.8598 30.3836 13.6598C29.9703 14.4465 29.4169 15.0265 28.7236 15.3998C28.0303 15.7598 27.2369 15.9398 26.3436 15.9398C25.4636 15.9398 24.6703 15.7598 23.9636 15.3998C23.2569 15.0265 22.6969 14.4465 22.2836 13.6598C21.8836 12.8598 21.6836 11.8131 21.6836 10.5198C21.6836 9.22648 21.8836 8.17981 22.2836 7.37981C22.6969 6.57981 23.2569 5.99315 23.9636 5.61981C24.6703 5.24648 25.4636 5.05981 26.3436 5.05981ZM26.3436 5.45981C25.6503 5.45981 25.0836 5.85981 24.6436 6.65981C24.2036 7.44648 23.9836 8.73315 23.9836 10.5198C23.9836 12.3065 24.2036 13.5931 24.6436 14.3798C25.0836 15.1531 25.6503 15.5398 26.3436 15.5398C27.0236 15.5398 27.5836 15.1531 28.0236 14.3798C28.4769 13.5931 28.7036 12.3065 28.7036 10.5198C28.7036 8.73315 28.4769 7.44648 28.0236 6.65981C27.5836 5.85981 27.0236 5.45981 26.3436 5.45981Z" fill="black" fill-opacity="0.7"/>
<path d="M16.1775 5.06C17.2442 5.06 18.1309 5.50667 18.8375 6.4C19.5575 7.28 19.9175 8.62 19.9175 10.42C19.9175 11.6867 19.7109 12.7267 19.2975 13.54C18.8842 14.3533 18.3309 14.96 17.6375 15.36C16.9575 15.7467 16.2175 15.94 15.4175 15.94C14.7909 15.94 14.1909 15.7867 13.6175 15.48C13.0442 15.16 12.6042 14.68 12.2975 14.04L12.6575 14.14C12.9509 14.5933 13.3175 14.9333 13.7575 15.16C14.1975 15.3867 14.6442 15.5 15.0975 15.5C15.9375 15.5 16.5642 15.0933 16.9775 14.28C17.4042 13.4667 17.6175 12.2133 17.6175 10.52C17.6175 9.41333 17.5309 8.50667 17.3575 7.8C17.1975 7.09333 16.9509 6.58 16.6175 6.26C16.2975 5.92667 15.8909 5.76 15.3975 5.76C14.8242 5.76 14.2975 6.00667 13.8175 6.5C13.3375 6.99333 13.0509 7.70667 12.9575 8.64L12.7575 8.22C12.9442 7.22 13.3442 6.44667 13.9575 5.9C14.5842 5.34 15.3242 5.06 16.1775 5.06ZM13.0775 0V14.84C12.8509 14.92 12.6175 15.02 12.3775 15.14C12.1375 15.26 11.9109 15.3933 11.6975 15.54C11.4842 15.6733 11.2842 15.82 11.0975 15.98L10.7775 15.82C10.8309 15.6333 10.8642 15.4467 10.8775 15.26C10.9042 15.0733 10.9175 14.88 10.9175 14.68V2.4C10.9175 1.8 10.8109 1.36 10.5975 1.08C10.3975 0.786666 10.0242 0.64 9.47754 0.64V0.22C9.90421 0.26 10.3175 0.28 10.7175 0.28C11.1575 0.28 11.5775 0.26 11.9775 0.22C12.3775 0.166667 12.7442 0.0933337 13.0775 0Z" fill="black" fill-opacity="0.7"/>
<path d="M2.64 15.7998C2.08 15.7998 1.6 15.6931 1.2 15.4798C0.8 15.2665 0.5 14.9731 0.3 14.5998C0.1 14.2265 0 13.7998 0 13.3198C0 12.7331 0.133333 12.2598 0.4 11.8998C0.666667 11.5265 1.00667 11.2265 1.42 10.9998C1.84667 10.7731 2.29333 10.5865 2.76 10.4398C3.24 10.2798 3.68667 10.1331 4.1 9.99981C4.52667 9.85315 4.87333 9.68648 5.14 9.49981C5.42 9.31315 5.56 9.06648 5.56 8.75981V7.39981C5.56 6.91981 5.48 6.53981 5.32 6.25981C5.17333 5.96648 4.96667 5.75981 4.7 5.63981C4.44667 5.51981 4.14 5.45981 3.78 5.45981C3.47333 5.45981 3.14667 5.50648 2.8 5.59981C2.45333 5.67981 2.18 5.84648 1.98 6.09981C2.27333 6.17981 2.51333 6.33981 2.7 6.57981C2.9 6.80648 3 7.09315 3 7.43981C3 7.81315 2.87333 8.10648 2.62 8.31981C2.38 8.53315 2.07333 8.63981 1.7 8.63981C1.28667 8.63981 0.98 8.51315 0.78 8.25982C0.58 7.99315 0.48 7.68648 0.48 7.33982C0.48 6.97982 0.566667 6.68648 0.74 6.45982C0.926667 6.23315 1.16667 6.01981 1.46 5.81981C1.78 5.60648 2.18667 5.42648 2.68 5.27981C3.18667 5.13315 3.74667 5.05981 4.36 5.05981C4.93333 5.05981 5.42667 5.12648 5.84 5.25981C6.26667 5.37981 6.62 5.57981 6.9 5.85981C7.23333 6.16648 7.45333 6.55315 7.56 7.01981C7.66667 7.47315 7.72 8.02648 7.72 8.67982V14.1998C7.72 14.5331 7.76 14.7731 7.84 14.9198C7.93333 15.0531 8.08 15.1198 8.28 15.1198C8.41333 15.1198 8.54 15.0865 8.66 15.0198C8.79333 14.9531 8.94667 14.8531 9.12 14.7198L9.32 15.0598C9.04 15.2865 8.75333 15.4665 8.46 15.5998C8.18 15.7331 7.82 15.7998 7.38 15.7998C6.95333 15.7998 6.60667 15.7331 6.34 15.5998C6.07333 15.4665 5.87333 15.2731 5.74 15.0198C5.62 14.7665 5.56 14.4531 5.56 14.0798C5.21333 14.6398 4.8 15.0665 4.32 15.3598C3.84 15.6531 3.28 15.7998 2.64 15.7998ZM3.6 14.8398C3.97333 14.8398 4.32 14.7331 4.64 14.5198C4.97333 14.3065 5.28 13.9865 5.56 13.5598V9.57981C5.41333 9.79315 5.2 9.97981 4.92 10.1398C4.64 10.2865 4.34 10.4398 4.02 10.5998C3.7 10.7598 3.39333 10.9465 3.1 11.1598C2.82 11.3598 2.58667 11.6198 2.4 11.9398C2.21333 12.2598 2.12 12.6665 2.12 13.1598C2.12 13.6798 2.25333 14.0931 2.52 14.3998C2.78667 14.6931 3.14667 14.8398 3.6 14.8398Z" fill="black" fill-opacity="0.7"/>
</svg>
